<svg xmlns="http://www.w3.org/2000/svg" viewBox="0 0 63.56 61.04"><defs><style>.cls-1{fill:#e87162;stroke:#e87162;stroke-miterlimit:10;stroke-width:0.75px;}</style></defs><title>Asset 6</title><g id="Layer_2" data-name="Layer 2"><g id="Layer_4" data-name="Layer 4"><circle class="cls-1" cx="51.58" cy="28.82" r="1.13"/><circle class="cls-1" cx="10.94" cy="28.82" r="1.13"/><circle class="cls-1" cx="14.33" cy="32.21" r="1.13"/><circle class="cls-1" cx="21.1" cy="32.21" r="1.13"/><circle class="cls-1" cx="17.72" cy="35.6" r="1.13"/><circle class="cls-1" cx="24.49" cy="35.6" r="1.13"/><circle class="cls-1" cx="27.88" cy="38.98" r="1.13"/><circle class="cls-1" cx="34.65" cy="38.98" r="1.13"/><circle class="cls-1" cx="38.04" cy="35.6" r="1.13"/><circle class="cls-1" cx="31.26" cy="42.37" r="1.13"/><circle class="cls-1" cx="41.42" cy="32.21" r="1.13"/><circle class="cls-1" cx="48.2" cy="32.21" r="1.13"/><circle class="cls-1" cx="44.81" cy="35.6" r="1.13"/><path class="cls-1" d="M52.19,36.52,62.8,30.46,51.9,24.27,62.8,18,31.78.43.76,18l10.9,6.23L.76,30.46l10.9,6.23L.76,42.88l31,17.72,31-17.72L51.9,36.69l.08,0A1.07,1.07,0,0,0,52.19,36.52ZM31.78,3l26.46,15L49.61,23h0L31.78,33.17,5.32,18.05ZM13.32,25.93a1.11,1.11,0,0,0,1.79.32l2.55,1.46a1.12,1.12,0,1,0,1.18,1.12,1.1,1.1,0,0,0-.15-.53L30.36,35a1.1,1.1,0,0,0-.22.64,1.13,1.13,0,0,0,2.26,0,1,1,0,0,0,0-.16L43.71,29a1.12,1.12,0,0,0,1.1,1,1.13,1.13,0,0,0,1.13-1.13,1.11,1.11,0,0,0-.46-.88L48,26.52a1.05,1.05,0,0,0,.23,0,1.12,1.12,0,0,0,1.06-.78l.36-.21,8.62,4.89L56,31.75a1.13,1.13,0,0,0-2.15.46,1.1,1.1,0,0,0,.22.64L49.61,35.4h0L42.4,39.52a1.1,1.1,0,0,0,.15-.53,1.13,1.13,0,1,0-1.18,1.12l-2.55,1.46a1.13,1.13,0,0,0-1.91.81,1.08,1.08,0,0,0,.05.26l-5.18,3L25.55,42a1.12,1.12,0,0,0-1.06-.79,1.06,1.06,0,0,0-.23,0l-2.48-1.42a1.11,1.11,0,0,0,.46-.89,1.13,1.13,0,0,0-1.13-1.13,1.12,1.12,0,0,0-1.1,1L8.65,32.37a1,1,0,0,0-1.1-1.29,1.11,1.11,0,0,0-.7.27l-1.53-.88Zm44.91,17L31.78,58,5.32,42.89,13.94,38,31.78,48.19,49.62,38Z"/></g></g></svg>