<svg xmlns="http://www.w3.org/2000/svg" viewBox="0 0 57 57"><defs><style>.cls-1{fill:#e87162;}</style></defs><title>Asset 5</title><g id="Layer_2" data-name="Layer 2"><g id="Layer_4" data-name="Layer 4"><path class="cls-1" d="M52,0H5A5,5,0,0,0,0,5V38.63a5,5,0,0,0,5,5H22.46L20.79,47H18.48a5,5,0,0,0-5,5v3.34A1.67,1.67,0,0,0,15.14,57H41.86a1.67,1.67,0,0,0,1.67-1.67V52a5,5,0,0,0-5-5H36.21l-1.67-3.34H52a5,5,0,0,0,5-5V5A5,5,0,0,0,52,0ZM35.18,50.32h3.34A1.67,1.67,0,0,1,40.19,52v1.67H16.81V52a1.67,1.67,0,0,1,1.67-1.67h16.7ZM24.52,47l1.67-3.34h4.62L32.48,47Zm29.14-8.35A1.67,1.67,0,0,1,52,40.3H5a1.67,1.67,0,0,1-1.67-1.67V37H53.66Zm0-5H3.34V5A1.67,1.67,0,0,1,5,3.34H52A1.67,1.67,0,0,1,53.66,5Z"/><path class="cls-1" d="M44.56,18.67l-6-6a1.5,1.5,0,1,0-2.12,2.12l4.94,4.94-4.94,4.94a1.5,1.5,0,1,0,2.12,2.12l6-6A1.5,1.5,0,0,0,44.56,18.67Z"/><path class="cls-1" d="M20.56,24.67l-4.94-4.94,4.94-4.94a1.5,1.5,0,0,0-2.12-2.12l-6,6a1.5,1.5,0,0,0,0,2.12l6,6a1.5,1.5,0,1,0,2.12-2.12Z"/><path class="cls-1" d="M32.17,12.39a1.5,1.5,0,0,0-2,.67l-6,12a1.5,1.5,0,0,0,2.68,1.34l6-12A1.5,1.5,0,0,0,32.17,12.39Z"/></g></g></svg>