<svg xmlns="http://www.w3.org/2000/svg" viewBox="0 0 724.35 422"><defs><style>.cls-1{fill:#e8e8e8;}.cls-2{fill:#dbd8d7;}.cls-3{fill:#2d3b44;}.cls-4{fill:none;stroke:#dbd8d7;stroke-miterlimit:10;}.cls-5{fill:#603813;}.cls-6{fill:#754c24;}.cls-7{fill:#b4b2ae;}.cls-8{fill:#9e9e9e;}.cls-9{fill:#9bd2ca;}</style></defs><title>Asset 7</title><g id="Layer_2" data-name="Layer 2"><g id="Layer_4" data-name="Layer 4"><path class="cls-1" d="M37.68,232.66a.85.85,0,0,1-1-1v-4.08a.85.85,0,0,1,1-1h6.16v-19.6H14.08v19.6h6.16c.64,0,1,.32,1,1v4.08c0,.64-.4,1-1,1H1c-.64,0-1-.32-1-1v-4.08c0-.64.32-1,1-1H7.12V181.22H1c-.64,0-1-.32-1-1v-4.08c0-.64.32-1,1-1h19.2a.91.91,0,0,1,1,1v4.08c0,.64-.4,1-1,1H14.08v20H43.84v-20H37.68a.85.85,0,0,1-1-1v-4.08a.85.85,0,0,1,1-1H57a.85.85,0,0,1,1,1v4.08a.85.85,0,0,1-1,1H50.8v45.44H57a.85.85,0,0,1,1,1v4.08a.85.85,0,0,1-1,1Z"/><path class="cls-1" d="M71.12,213.78c.4,9.36,7,13.84,13.28,13.84,6.88,0,11.6-4.32,12.72-6.16a.91.91,0,0,1,1.44-.24l2.16,2.16c.56.48.64,1,.32,1.44-1,1.76-6.48,8.4-17,8.4-10.8,0-19.68-7.6-19.68-20.4,0-13,9.28-20.08,18.88-20.08,11.44,0,18.08,7.6,17.84,20a1,1,0,0,1-1.12,1ZM94.4,208.9c-.32-6.48-4.16-10.88-11-10.88-5.52,0-11.12,3.2-12.08,10.88Z"/><path class="cls-1" d="M109.92,232.66c-.64,0-1-.32-1-1v-3.44a.91.91,0,0,1,1-1h4.4V180.58h-4.4a.91.91,0,0,1-1-1v-3.44a.91.91,0,0,1,1-1h8.88c1.6,0,2.16.64,2.16,2V227.3h4.24a.91.91,0,0,1,1,1v3.44c0,.64-.4,1-1,1Z"/><path class="cls-1" d="M135.36,232.66c-.64,0-1-.32-1-1v-3.44a.91.91,0,0,1,1-1h4.4V180.58h-4.4a.91.91,0,0,1-1-1v-3.44a.91.91,0,0,1,1-1h8.88c1.6,0,2.16.64,2.16,2V227.3h4.24a.91.91,0,0,1,1,1v3.44c0,.64-.4,1-1,1Z"/><path class="cls-1" d="M159.28,212.82c0-12.64,8.88-20.08,20-20.08s19.84,7.6,19.84,20.08-8.48,20.4-19.92,20.4S159.28,225.38,159.28,212.82Zm33.2.08c0-9.12-6.32-14.56-13.2-14.56S166,203.78,166,212.9s6.08,14.72,13.2,14.72S192.48,221.94,192.48,212.9Z"/><path class="cls-1" d="M210.32,233.22a3.72,3.72,0,0,1-3.84-3.76,3.8,3.8,0,0,1,7.6,0A3.71,3.71,0,0,1,210.32,233.22Z"/></g><g id="Layer_5" data-name="Layer 5"><rect class="cls-2" x="437.01" y="343.39" width="200.53" height="78.61" rx="12" ry="12"/><g id="_9IGV8R" data-name="9IGV8R"><path class="cls-3" d="M573.34,406.6v8.8H501.21v-8.8Z"/><path class="cls-3" d="M628.39,370.61v20.81H607.12v-8.91h6.09V370.61Z"/><path class="cls-3" d="M446.15,403.39V394.6h27.45v8.79Z"/><path class="cls-3" d="M600.9,403.39V394.6h27.45v8.78Z"/><path class="cls-3" d="M467.39,391.46H446.18v-8.89h21.21Z"/><path class="cls-3" d="M446.15,379.48v-8.87h15.13c0,1.9,0,3.78,0,5.66,0,.8,0,1.6,0,2.4s-.34.82-.93.82c-3.36,0-6.73,0-10.09,0Z"/><path class="cls-3" d="M613.71,406.57h14.65v8.83H613.71Z"/><path class="cls-3" d="M576.9,406.56h14.65v8.82H576.9Z"/><path class="cls-3" d="M483,406.58h14.66v8.83H483Z"/><path class="cls-3" d="M446.17,406.57h14.7c0,1.35,0,2.65,0,4s0,2.76,0,4.13c0,.46,0,.82-.64.82l-13.74,0a1.26,1.26,0,0,1-.32-.11Z"/><path class="cls-3" d="M610.22,406.58c0,2.83,0,5.55,0,8.27,0,.71-.49.63-.92.63H595.56v-8.9Z"/><path class="cls-3" d="M464.76,406.59h14.62v8.82c-.3,0-.6.07-.91.07-4.23,0-8.47,0-12.7,0-.85,0-1.1-.24-1.08-1.09.05-2.28,0-4.55,0-6.83C464.71,407.27,464.74,407,464.76,406.59Z"/><path class="cls-3" d="M492.26,382.55v8.88h-8.89v-8.88Z"/><path class="cls-3" d="M508.19,391.44v-8.86h8.86v8.86Z"/><path class="cls-3" d="M533,382.55h8.89v8.89H533Z"/><path class="cls-3" d="M557.47,382.54h8.84v8.88h-8.84Z"/><path class="cls-3" d="M569.89,382.55h8.81v8.88h-8.81Z"/><path class="cls-3" d="M591.14,391.46H582.3v-8.89h8.84Z"/><path class="cls-3" d="M594.69,382.52h8.83v8.89h-8.83Z"/><path class="cls-3" d="M545.07,382.53h8.8v8.89h-8.8Z"/><path class="cls-3" d="M553.9,358.56v8.83H545v-8.83Z"/><path class="cls-3" d="M588.47,370.57h8.86v8.85h-8.86Z"/><path class="cls-3" d="M510.87,403.41H502v-8.83h8.86Z"/><path class="cls-3" d="M572.53,370.61v8.8h-8.88v-8.8Z"/><path class="cls-3" d="M523.26,403.42h-8.91c0-1.41,0-2.78,0-4.15s0-2.69,0-4c0-.24.33-.68.51-.69,2.77,0,5.55,0,8.38,0Z"/><path class="cls-3" d="M547.7,370.59v8.82h-8.88v-8.82Z"/><path class="cls-3" d="M535.68,379.44h-8.83v-8.83h8.83Z"/><path class="cls-3" d="M514.35,370.57h8.91v8.83c-.3,0-.6.07-.91.07-2.34,0-4.67,0-7,0-.72,0-1-.16-1-1C514.38,375.92,514.35,373.3,514.35,370.57Z"/><path class="cls-3" d="M502,370.58h8.92c0,1.61,0,3.17,0,4.73,0,1.15,0,2.31,0,3.46,0,.25-.33.68-.51.68-2.78,0-5.56,0-8.39,0Z"/><path class="cls-3" d="M489.59,370.56h8.83v8.83h-8.83Z"/><path class="cls-3" d="M498.45,394.62v8.77h-8.87v-8.77Z"/><path class="cls-3" d="M486.11,403.42H477.2v-8.91h8.19c.44,0,.73.09.72.63C486.1,397.86,486.11,400.58,486.11,403.42Z"/><path class="cls-3" d="M479.81,391.44H471v-8.89h8.82Z"/><path class="cls-3" d="M495.85,382.54h8.76v8.87h-8.76Z"/><path class="cls-3" d="M520.65,382.55h8.81v8.88h-8.81Z"/><path class="cls-3" d="M467.42,358.52v8.88h-8.93c0-1.39,0-2.75,0-4.12s0-2.69,0-4c0-.24.32-.68.5-.69C461.8,358.51,464.58,358.52,467.42,358.52Z"/><path class="cls-3" d="M483.32,367.4c0-2.81,0-5.53,0-8.26,0-.21.32-.59.5-.59,2.78,0,5.57,0,8.41,0v8.88Z"/><path class="cls-3" d="M517.08,367.43h-8.87v-8.85h8.87Z"/><path class="cls-3" d="M597.35,394.57v8.82h-8.87v-8.82Z"/><path class="cls-3" d="M533,367.38v-8.78h8.88v8.78Z"/><path class="cls-3" d="M557.44,367.4v-8.8h8.87v8.8Z"/><path class="cls-3" d="M569.87,358.57h8.82v8.81h-8.82Z"/><path class="cls-3" d="M591.2,367.42H582.3v-8.79a3.35,3.35,0,0,1,.61-.11h7.49c.45,0,.82,0,.81.64C591.19,361.87,591.2,364.59,591.2,367.42Z"/><path class="cls-3" d="M603.56,358.52v8.87h-8.94q0-1.72,0-3.43c0-1.57,0-3.14,0-4.71,0-.25.32-.7.49-.7C597.91,358.51,600.69,358.52,603.56,358.52Z"/><path class="cls-3" d="M616,367.42h-8.85v-8.82H616Z"/><path class="cls-3" d="M628.36,358.52v8.88h-8.92c0-1.38,0-2.75,0-4.12s0-2.69,0-4c0-.25.32-.69.5-.69C622.75,358.51,625.53,358.52,628.36,358.52Z"/><path class="cls-3" d="M563.66,394.58h8.87v8.82h-8.87Z"/><path class="cls-3" d="M486,379.42H477.2v-8.81H486Z"/><path class="cls-3" d="M535.76,403.42h-8.91v-8.83c.31,0,.61-.07.92-.07,2.34,0,4.67,0,7,0,.72,0,1,.17,1,1C535.73,398.07,535.76,400.7,535.76,403.42Z"/><path class="cls-3" d="M547.68,403.42h-8.84v-8.81h8.84Z"/><path class="cls-3" d="M560.13,403.41h-8.86v-8.83c.38,0,.75-.06,1.12-.06,2.31,0,4.61,0,6.92,0,.28,0,.79.32.79.49C560.15,397.8,560.13,400.58,560.13,403.41Z"/><path class="cls-3" d="M584.91,394.6v8.81H576.1V394.6Z"/><path class="cls-3" d="M446.19,358.51h3.95c1.38,0,2.76,0,4.13,0,.27,0,.75.35.75.54,0,2.75,0,5.5,0,8.32h-8.86Z"/><path class="cls-3" d="M471,367.4v-8.78a5.24,5.24,0,0,1,.74-.11c2.43,0,4.87,0,7.3,0,.28,0,.81.3.81.47.05,2.78,0,5.56,0,8.4Z"/><path class="cls-3" d="M495.8,367.4v-8.73a1.16,1.16,0,0,1,.35-.13c2.63,0,5.25,0,7.88,0,.22,0,.63.3.63.47,0,2.78,0,5.56,0,8.4Z"/><path class="cls-3" d="M520.67,358.58h8.78v8.82h-8.78Z"/><path class="cls-3" d="M473.59,379.48h-4.34c-1.25,0-2.5,0-3.75,0-.27,0-.75-.35-.75-.54,0-2.75,0-5.5,0-8.32h8.87Z"/><path class="cls-3" d="M551.25,379.47v-8.87h8.89c0,1.65,0,3.28,0,4.9,0,1.09,0,2.18,0,3.26,0,.24-.33.67-.52.67C556.85,379.49,554.1,379.47,551.25,379.47Z"/><path class="cls-3" d="M576.1,379.38V370.6H585c0,.46,0,.92,0,1.39,0,2.21,0,4.42,0,6.63,0,.48,0,.88-.67.88-2.59,0-5.19,0-7.78,0A2.32,2.32,0,0,1,576.1,379.38Z"/><path class="cls-3" d="M609.73,370.6v8.82h-8.81V370.6Z"/><path class="cls-3" d="M517.05,355.45H508.2v-4.86h8.85Z"/><path class="cls-3" d="M533,355.41v-4.83h8.88v4.83Z"/><path class="cls-3" d="M566.34,350.6v4.82h-8.87V350.6Z"/><path class="cls-3" d="M569.86,355.42V350.6h8.84v4.83Z"/><path class="cls-3" d="M591.14,350.59v4.84h-8.86v-4.84Z"/><path class="cls-3" d="M594.68,350.57h8.86v4.86h-8.86Z"/><path class="cls-3" d="M616,355.45h-8.83V350.6H616Z"/><path class="cls-3" d="M628.34,355.47h-8.81v-4.9h8.81Z"/><path class="cls-3" d="M492.28,350.58v4.85h-8.88v-4.85Z"/><path class="cls-3" d="M467.42,355.45h-8.87v-4.86h8.87Z"/><path class="cls-3" d="M553.9,350.56v4.86H545v-4.86Z"/><path class="cls-3" d="M504.64,350.59v4.85h-8.81v-4.85Z"/><path class="cls-3" d="M471,350.56h8.79v4.89H471Z"/><path class="cls-3" d="M529.45,355.45h-8.77v-4.88h8.77Z"/><path class="cls-3" d="M446.16,350.56H455v4.86h-8.81Z"/></g><path class="cls-4" d="M711.63,378.08s-5.52,44.06-34.77,25.25c-26.59-17.1,18.41-61.89-7.16-78.18-24.38-15.53-101.24-15.47-101.24-15.47"/><g id="HpURTs.tif"><path class="cls-2" d="M724.35,360.37v10.05a1.73,1.73,0,0,0-.07.27A11.69,11.69,0,0,1,715.84,381c-.54.14-1.1.25-1.64.37h-8.33c-.25-.06-.5-.13-.76-.17-5.39-.88-9.39-5.92-9.4-11.86q0-4.22,0-8.44c0-.15,0-.3,0-.44l.12,0Z"/><path class="cls-2" d="M706.13,336.85h2.34c0,2.13,0,4.27,0,6.4a.6.6,0,0,1-.34.61,3.74,3.74,0,0,0-1.9,3.5q0,2.91,0,5.83a3.86,3.86,0,0,0,2,3.65c.1.06.24.18.24.28,0,1.08,0,2.17,0,3.26H695.73c0-.14,0-.25,0-.36q0-5.88,0-11.75a7.73,7.73,0,0,1,.12-1.32c.83-4.71,3.37-7.82,7.47-9.41A21,21,0,0,1,706.13,336.85Z"/><path class="cls-2" d="M711.6,336.85h2.34a18.33,18.33,0,0,1,2,.39c4.4,1.37,7.23,4.42,8.24,9.36.1.5.15,1,.22,1.53v12.33c-.19,0-.37,0-.56,0H711.6c0-1,0-2,0-2.9a.77.77,0,0,1,.42-.8,3.62,3.62,0,0,0,1.81-3.27q0-3.08,0-6.16a3.72,3.72,0,0,0-1.89-3.41.6.6,0,0,1-.34-.62C711.6,341.11,711.6,339,711.6,336.85Z"/><path class="cls-2" d="M707.58,350.65c0-.84,0-1.67,0-2.51a2.48,2.48,0,0,1,1.61-2.35,2.24,2.24,0,0,1,2.57.6,2.37,2.37,0,0,1,.71,1.63c0,1.77.06,3.54,0,5.3a2.45,2.45,0,0,1-2.42,2.34,2.48,2.48,0,0,1-2.45-2.37c-.06-.88,0-1.77,0-2.65Z"/><path class="cls-2" d="M695.62,360.19,695.7,349a2.1,2.1,0,0,0,.08-.3c.61-5.6,4-10.09,8.52-11.35.55-.15,1.1-.27,1.65-.4l8.33.06c.25.07.5.15.76.2,5.39,1,9.34,6.66,9.3,13.26q0,4.69-.07,9.38c0,.17,0,.34,0,.49l-.12,0Z"/></g><rect class="cls-2" x="321.56" y="346.24" width="24.38" height="10.09" rx="5.05" ry="5.05"/><circle class="cls-2" cx="376.16" cy="351.68" r="34.2"/><path class="cls-5" d="M381.36,337.14a22.53,22.53,0,0,1-1.43-10.88,25.71,25.71,0,1,0,1.19,50.65C389,358.39,388.18,355.05,381.36,337.14Z"/><path class="cls-6" d="M401.86,351.68a25.71,25.71,0,0,0-21.93-25.43,22.53,22.53,0,0,0,1.43,10.88c6.82,17.92,7.62,21.25-.24,39.77A25.71,25.71,0,0,0,401.86,351.68Z"/><circle class="cls-6" cx="381.26" cy="355.68" r="1.53"/><circle class="cls-6" cx="379.78" cy="348.56" r="3.01"/><rect class="cls-3" x="337.2" width="364.16" height="274.52" rx="12" ry="12"/><path class="cls-7" d="M553.68,315.93H485.57c-8.81,0-16-4.33-16-9.63l29.38-60.16c0-5.29-22.17-5.61-13.35-5.61h68.11c8.81,0-14.69.32-14.69,5.61l30.71,60.16C569.7,311.6,562.49,315.93,553.68,315.93Z"/><path class="cls-8" d="M500.26,246.15c0-5.29-22.17-5.61-13.35-5.61H555c8.81,0-14.69.32-14.69,5.61l29.06,56.92c1.65,3.24-.27,10.76-4.77,11.75-14.69,3.21-37.71,1.12-44.32,1.12"/><rect class="cls-2" x="337.2" y="195.62" width="364.16" height="78.91" rx="12" ry="12"/><rect class="cls-3" x="337.2" y="121.02" width="364.16" height="113.9"/><rect class="cls-9" x="351.63" y="13.54" width="335.28" height="210.15"/><circle class="cls-3" cx="519.68" cy="255.37" r="6.02"/><rect class="cls-2" x="463.93" y="307.11" width="110.69" height="8.82" rx="4.41" ry="4.41"/></g></g></svg>