<svg xmlns="http://www.w3.org/2000/svg" viewBox="0 0 402.8 422"><defs><style>.cls-1{fill:#2d3b44;}.cls-2{fill:#dbd8d7;}.cls-3{fill:none;stroke:#dbd8d7;stroke-miterlimit:10;}.cls-4{fill:#603813;}.cls-5{fill:#754c24;}.cls-6{fill:#b4b2ae;}.cls-7{fill:#9e9e9e;}.cls-8{fill:#9bd2ca;}</style></defs><title>Asset 9</title><g id="Layer_2" data-name="Layer 2"><g id="Layer_5" data-name="Layer 5"><path class="cls-1" d="M266.7,269.56"/><rect class="cls-2" x="115.45" y="343.39" width="200.53" height="78.61" rx="12" ry="12"/><g id="_9IGV8R" data-name="9IGV8R"><path class="cls-1" d="M251.78,406.6v8.8H179.65v-8.8Z"/><path class="cls-1" d="M306.83,370.61v20.81H285.56v-8.91h6.09V370.61Z"/><path class="cls-1" d="M124.59,403.39V394.6H152v8.79Z"/><path class="cls-1" d="M279.34,403.39V394.6h27.45v8.78Z"/><path class="cls-1" d="M145.83,391.46H124.62v-8.89h21.21Z"/><path class="cls-1" d="M124.59,379.48v-8.87h15.13c0,1.9,0,3.78,0,5.66,0,.8,0,1.6,0,2.4s-.34.82-.93.82c-3.36,0-6.73,0-10.09,0Z"/><path class="cls-1" d="M292.16,406.57H306.8v8.83H292.16Z"/><path class="cls-1" d="M255.34,406.56H270v8.82H255.34Z"/><path class="cls-1" d="M161.42,406.58h14.66v8.83H161.42Z"/><path class="cls-1" d="M124.61,406.57h14.7c0,1.35,0,2.65,0,4s0,2.76,0,4.13c0,.46,0,.82-.64.82l-13.74,0a1.26,1.26,0,0,1-.32-.11Z"/><path class="cls-1" d="M288.66,406.58c0,2.83,0,5.55,0,8.27,0,.71-.49.63-.92.63H274v-8.9Z"/><path class="cls-1" d="M143.21,406.59h14.62v8.82c-.3,0-.6.07-.91.07-4.23,0-8.47,0-12.7,0-.85,0-1.1-.24-1.08-1.09.05-2.28,0-4.55,0-6.83C143.15,407.27,143.19,407,143.21,406.59Z"/><path class="cls-1" d="M170.7,382.55v8.88h-8.89v-8.88Z"/><path class="cls-1" d="M186.63,391.44v-8.86h8.86v8.86Z"/><path class="cls-1" d="M211.46,382.55h8.89v8.89h-8.89Z"/><path class="cls-1" d="M235.91,382.54h8.84v8.88h-8.84Z"/><path class="cls-1" d="M248.33,382.55h8.81v8.88h-8.81Z"/><path class="cls-1" d="M269.58,391.46h-8.84v-8.89h8.84Z"/><path class="cls-1" d="M273.13,382.52H282v8.89h-8.83Z"/><path class="cls-1" d="M223.51,382.53h8.8v8.89h-8.8Z"/><path class="cls-1" d="M232.34,358.56v8.83h-8.86v-8.83Z"/><path class="cls-1" d="M266.92,370.57h8.86v8.85h-8.86Z"/><path class="cls-1" d="M189.31,403.41h-8.86v-8.83h8.86Z"/><path class="cls-1" d="M251,370.61v8.8H242.1v-8.8Z"/><path class="cls-1" d="M201.7,403.42h-8.91c0-1.41,0-2.78,0-4.15s0-2.69,0-4c0-.24.33-.68.51-.69,2.77,0,5.55,0,8.38,0Z"/><path class="cls-1" d="M226.14,370.59v8.82h-8.88v-8.82Z"/><path class="cls-1" d="M214.12,379.44H205.3v-8.83h8.83Z"/><path class="cls-1" d="M192.79,370.57h8.91v8.83c-.3,0-.6.07-.91.07-2.34,0-4.67,0-7,0-.72,0-1-.16-1-1C192.82,375.92,192.79,373.3,192.79,370.57Z"/><path class="cls-1" d="M180.45,370.58h8.92c0,1.61,0,3.17,0,4.73,0,1.15,0,2.31,0,3.46,0,.25-.33.68-.51.68-2.78,0-5.56,0-8.39,0Z"/><path class="cls-1" d="M168,370.56h8.83v8.83H168Z"/><path class="cls-1" d="M176.89,394.62v8.77H168v-8.77Z"/><path class="cls-1" d="M164.55,403.42h-8.91v-8.91h8.19c.44,0,.73.09.72.63C164.54,397.86,164.55,400.58,164.55,403.42Z"/><path class="cls-1" d="M158.25,391.44h-8.82v-8.89h8.82Z"/><path class="cls-1" d="M174.29,382.54H183v8.87h-8.76Z"/><path class="cls-1" d="M199.09,382.55h8.81v8.88h-8.81Z"/><path class="cls-1" d="M145.86,358.52v8.88h-8.93c0-1.39,0-2.75,0-4.12s0-2.69,0-4c0-.24.32-.68.5-.69C140.24,358.51,143,358.52,145.86,358.52Z"/><path class="cls-1" d="M161.76,367.4c0-2.81,0-5.53,0-8.26,0-.21.32-.59.5-.59,2.78,0,5.57,0,8.41,0v8.88Z"/><path class="cls-1" d="M195.52,367.43h-8.87v-8.85h8.87Z"/><path class="cls-1" d="M275.79,394.57v8.82h-8.87v-8.82Z"/><path class="cls-1" d="M211.45,367.38v-8.78h8.88v8.78Z"/><path class="cls-1" d="M235.88,367.4v-8.8h8.87v8.8Z"/><path class="cls-1" d="M248.32,358.57h8.82v8.81h-8.82Z"/><path class="cls-1" d="M269.64,367.42h-8.91v-8.79a3.35,3.35,0,0,1,.61-.11h7.49c.45,0,.82,0,.81.64C269.63,361.87,269.64,364.59,269.64,367.42Z"/><path class="cls-1" d="M282,358.52v8.87h-8.94q0-1.72,0-3.43c0-1.57,0-3.14,0-4.71,0-.25.32-.7.49-.7C276.35,358.51,279.13,358.52,282,358.52Z"/><path class="cls-1" d="M294.41,367.42h-8.85v-8.82h8.85Z"/><path class="cls-1" d="M306.8,358.52v8.88h-8.92c0-1.38,0-2.75,0-4.12s0-2.69,0-4c0-.25.32-.69.5-.69C301.19,358.51,304,358.52,306.8,358.52Z"/><path class="cls-1" d="M242.1,394.58H251v8.82H242.1Z"/><path class="cls-1" d="M164.47,379.42h-8.83v-8.81h8.83Z"/><path class="cls-1" d="M214.2,403.42h-8.91v-8.83c.31,0,.61-.07.92-.07,2.34,0,4.67,0,7,0,.72,0,1,.17,1,1C214.17,398.07,214.2,400.7,214.2,403.42Z"/><path class="cls-1" d="M226.12,403.42h-8.84v-8.81h8.84Z"/><path class="cls-1" d="M238.58,403.41h-8.86v-8.83c.38,0,.75-.06,1.12-.06,2.31,0,4.61,0,6.92,0,.28,0,.79.32.79.49C238.59,397.8,238.58,400.58,238.58,403.41Z"/><path class="cls-1" d="M263.35,394.6v8.81h-8.81V394.6Z"/><path class="cls-1" d="M124.63,358.51h3.95c1.38,0,2.76,0,4.13,0,.27,0,.75.35.75.54,0,2.75,0,5.5,0,8.32h-8.86Z"/><path class="cls-1" d="M149.41,367.4v-8.78a5.24,5.24,0,0,1,.74-.11c2.43,0,4.87,0,7.3,0,.28,0,.81.3.81.47.05,2.78,0,5.56,0,8.4Z"/><path class="cls-1" d="M174.24,367.4v-8.73a1.16,1.16,0,0,1,.35-.13c2.63,0,5.25,0,7.88,0,.22,0,.63.3.63.47,0,2.78,0,5.56,0,8.4Z"/><path class="cls-1" d="M199.11,358.58h8.78v8.82h-8.78Z"/><path class="cls-1" d="M152,379.48h-4.34c-1.25,0-2.5,0-3.75,0-.27,0-.75-.35-.75-.54,0-2.75,0-5.5,0-8.32H152Z"/><path class="cls-1" d="M229.69,379.47v-8.87h8.89c0,1.65,0,3.28,0,4.9,0,1.09,0,2.18,0,3.26,0,.24-.33.67-.52.67C235.29,379.49,232.54,379.47,229.69,379.47Z"/><path class="cls-1" d="M254.54,379.38V370.6h8.87c0,.46,0,.92,0,1.39,0,2.21,0,4.42,0,6.63,0,.48,0,.88-.67.88-2.59,0-5.19,0-7.78,0A2.32,2.32,0,0,1,254.54,379.38Z"/><path class="cls-1" d="M288.17,370.6v8.82h-8.81V370.6Z"/><path class="cls-1" d="M195.49,355.45h-8.85v-4.86h8.85Z"/><path class="cls-1" d="M211.45,355.41v-4.83h8.88v4.83Z"/><path class="cls-1" d="M244.78,350.6v4.82h-8.87V350.6Z"/><path class="cls-1" d="M248.3,355.42V350.6h8.84v4.83Z"/><path class="cls-1" d="M269.58,350.59v4.84h-8.86v-4.84Z"/><path class="cls-1" d="M273.12,350.57H282v4.86h-8.86Z"/><path class="cls-1" d="M294.4,355.45h-8.83V350.6h8.83Z"/><path class="cls-1" d="M306.78,355.47H298v-4.9h8.81Z"/><path class="cls-1" d="M170.72,350.58v4.85h-8.88v-4.85Z"/><path class="cls-1" d="M145.86,355.45H137v-4.86h8.87Z"/><path class="cls-1" d="M232.34,350.56v4.86h-8.86v-4.86Z"/><path class="cls-1" d="M183.08,350.59v4.85h-8.81v-4.85Z"/><path class="cls-1" d="M149.44,350.56h8.79v4.89h-8.79Z"/><path class="cls-1" d="M207.89,355.45h-8.77v-4.88h8.77Z"/><path class="cls-1" d="M124.6,350.56h8.81v4.86H124.6Z"/></g><path class="cls-3" d="M390.07,378.08s-5.52,44.06-34.77,25.25c-26.59-17.1,18.41-61.89-7.16-78.18-24.38-15.53-101.24-15.47-101.24-15.47"/><g id="HpURTs.tif"><path class="cls-2" d="M402.8,360.37v10.05a1.73,1.73,0,0,0-.07.27A11.69,11.69,0,0,1,394.28,381c-.54.14-1.1.25-1.64.37h-8.33c-.25-.06-.5-.13-.76-.17-5.39-.88-9.39-5.92-9.4-11.86q0-4.22,0-8.44c0-.15,0-.3,0-.44l.12,0Z"/><path class="cls-2" d="M384.57,336.85h2.34c0,2.13,0,4.27,0,6.4a.6.6,0,0,1-.34.61,3.74,3.74,0,0,0-1.9,3.5q0,2.91,0,5.83a3.86,3.86,0,0,0,2,3.65c.1.06.24.18.24.28,0,1.08,0,2.17,0,3.26H374.17c0-.14,0-.25,0-.36q0-5.88,0-11.75a7.73,7.73,0,0,1,.12-1.32c.83-4.71,3.37-7.82,7.47-9.41A21,21,0,0,1,384.57,336.85Z"/><path class="cls-2" d="M390,336.85h2.34a18.33,18.33,0,0,1,2,.39c4.4,1.37,7.23,4.42,8.24,9.36.1.5.15,1,.22,1.53v12.33c-.19,0-.37,0-.56,0H390c0-1,0-2,0-2.9a.77.77,0,0,1,.42-.8,3.62,3.62,0,0,0,1.81-3.27q0-3.08,0-6.16a3.72,3.72,0,0,0-1.89-3.41.6.6,0,0,1-.34-.62C390,341.11,390,339,390,336.85Z"/><path class="cls-2" d="M386,350.65c0-.84,0-1.67,0-2.51a2.48,2.48,0,0,1,1.61-2.35,2.24,2.24,0,0,1,2.57.6,2.37,2.37,0,0,1,.71,1.63c0,1.77.06,3.54,0,5.3a2.45,2.45,0,0,1-2.42,2.34A2.48,2.48,0,0,1,386,353.3c-.06-.88,0-1.77,0-2.65Z"/><path class="cls-2" d="M374.06,360.19l.08-11.18a2.1,2.1,0,0,0,.08-.3c.61-5.6,4-10.09,8.52-11.35.55-.15,1.1-.27,1.65-.4l8.33.06c.25.07.5.15.76.2,5.39,1,9.34,6.66,9.3,13.26q0,4.69-.07,9.38c0,.17,0,.34,0,.49l-.12,0Z"/></g><rect class="cls-2" y="346.24" width="24.38" height="10.09" rx="5.05" ry="5.05"/><circle class="cls-2" cx="54.6" cy="351.68" r="34.2"/><path class="cls-4" d="M59.81,337.14a22.53,22.53,0,0,1-1.43-10.88,25.71,25.71,0,1,0,1.19,50.65C67.43,358.39,66.62,355.05,59.81,337.14Z"/><path class="cls-5" d="M80.3,351.68a25.71,25.71,0,0,0-21.93-25.43,22.53,22.53,0,0,0,1.43,10.88c6.82,17.92,7.62,21.25-.24,39.77A25.71,25.71,0,0,0,80.3,351.68Z"/><circle class="cls-5" cx="59.7" cy="355.68" r="1.53"/><circle class="cls-5" cx="58.22" cy="348.56" r="3.01"/><rect class="cls-1" x="15.64" width="364.16" height="274.52" rx="12" ry="12"/><path class="cls-6" d="M232.12,315.93H164c-8.81,0-16-4.33-16-9.63l29.38-60.16c0-5.29-22.17-5.61-13.35-5.61h68.11c8.81,0-14.69.32-14.69,5.61l30.71,60.16C248.14,311.6,240.93,315.93,232.12,315.93Z"/><path class="cls-7" d="M178.7,246.15c0-5.29-22.17-5.61-13.35-5.61h68.11c8.81,0-14.69.32-14.69,5.61l29.06,56.92c1.65,3.24-.27,10.76-4.77,11.75-14.69,3.21-37.71,1.12-44.32,1.12"/><rect class="cls-2" x="15.64" y="195.62" width="364.16" height="78.91" rx="12" ry="12"/><rect class="cls-1" x="15.64" y="121.02" width="364.16" height="113.9"/><rect class="cls-8" x="30.08" y="13.54" width="335.28" height="210.15"/><circle class="cls-1" cx="198.12" cy="255.37" r="6.02"/><rect class="cls-2" x="142.37" y="307.11" width="110.69" height="8.82" rx="4.41" ry="4.41"/><rect class="cls-6" x="386.8" y="346" width="4" height="14" rx="2" ry="2"/></g></g></svg>