<svg xmlns="http://www.w3.org/2000/svg" viewBox="0 0 49 61"><defs><style>.cls-1{fill:#e87162;stroke:#e87162;stroke-miterlimit:10;}</style></defs><title>Asset 4</title><g id="Layer_2" data-name="Layer 2"><g id="Layer_4" data-name="Layer 4"><path class="cls-1" d="M39.5,25.5h-25a1,1,0,0,0,0,2h25a1,1,0,0,0,0-2Z"/><path class="cls-1" d="M14.5,19.5h10a1,1,0,0,0,0-2h-10a1,1,0,0,0,0,2Z"/><path class="cls-1" d="M39.5,33.5h-25a1,1,0,0,0,0,2h25a1,1,0,0,0,0-2Z"/><path class="cls-1" d="M39.5,41.5h-25a1,1,0,0,0,0,2h25a1,1,0,0,0,0-2Z"/><path class="cls-1" d="M39.5,49.5h-25a1,1,0,0,0,0,2h25a1,1,0,0,0,0-2Z"/><path class="cls-1" d="M43.5,15.09V.5H.5v55h5v5h43V20.09Zm-9-6.17,9,9,1.59,1.59H34.5ZM2.5,53.5V2.5h39V13.09L33.91,5.5H5.5v48Zm5,5V7.5h25v14h14v37Z"/></g></g></svg>