<svg xmlns="http://www.w3.org/2000/svg" viewBox="0 0 128 128"><defs><style>.cls-1{fill:#f2f2f2;}</style></defs><title>Asset 3</title><g id="Layer_2" data-name="Layer 2"><g id="Github"><path class="cls-1" d="M64,0a64,64,0,1,0,64,64A64,64,0,0,0,64,0ZM44.82,53.39A13.87,13.87,0,0,0,41.13,63c0,13.73,8.37,16.81,16.33,17.71a7.64,7.64,0,0,0-2.28,4.79c-2,.92-7.23,2.5-10.43-3,0,0-1.9-3.44-5.49-3.7,0,0-3.5,0-.25,2.18,0,0,2.35,1.1,4,5.25,0,0,2.1,6.4,12.08,4.23,0,3,0,5.82,0,6.67s-.66,2.06-2.45,1.72a35.84,35.84,0,1,1,22.68,0c-1.82.35-2.46-.77-2.46-1.72,0-1.18,0-5,0-9.83,0-3.34-1.14-5.53-2.43-6.64,8-.89,16.37-3.92,16.37-17.68a13.84,13.84,0,0,0-3.69-9.62,12.87,12.87,0,0,0-.35-9.49s-3-1-9.85,3.67a34,34,0,0,0-17.95,0c-6.85-4.64-9.86-3.67-9.86-3.67m9.7,43.18c.05.29-.25.58-.67.66s-.8-.1-.85-.39.25-.59.66-.67S54.82,86.8,54.87,87.09Zm-2.73.46c0,.3-.33.54-.76.55s-.78-.23-.78-.52.34-.54.76-.55S52.14,87.26,52.14,87.55Zm-2.93-.21c-.09.28-.49.41-.9.29s-.67-.45-.59-.73.49-.42.9-.29S49.29,87.05,49.21,87.34Zm-2.67-1.16c-.2.22-.61.16-.92-.14a.69.69,0,0,1-.2-.92c.2-.22.62-.16.93.14S46.75,86,46.54,86.18Zm-1.94-2c-.22.15-.58,0-.8-.31s-.22-.7,0-.85.58,0,.8.3S44.82,84,44.6,84.19Zm-1.41-2.06c-.17.16-.5.08-.73-.17a.55.55,0,0,1-.11-.75c.18-.16.5-.08.74.17S43.37,82,43.19,82.12ZM41.74,80.5c-.08.18-.36.23-.62.11s-.41-.36-.32-.54.36-.23.62-.11S41.82,80.32,41.74,80.5Z"/></g></g></svg>