<svg xmlns="http://www.w3.org/2000/svg" viewBox="0 0 1870 708.71"><defs><style>.cls-1{fill:#e87162;}.cls-2{fill:#e8e8e8;}.cls-3{fill:#a34b4a;}.cls-4{fill:#2d3b44;}.cls-5{fill:#dbd8d7;}.cls-6{fill:none;stroke:#dbd8d7;stroke-miterlimit:10;}.cls-7{fill:#603813;}.cls-8{fill:#754c24;}.cls-9{fill:#b4b2ae;}.cls-10{fill:#9e9e9e;}.cls-11{fill:#9bd2ca;}</style></defs><title>Asset 8</title><g id="Layer_2" data-name="Layer 2"><g id="Layer_4" data-name="Layer 4"><rect class="cls-1" y="22.71" width="1870" height="686"/><path class="cls-2" d="M636.33,456.37a.85.85,0,0,1-1-1v-4.08a.85.85,0,0,1,1-1h6.16v-19.6H612.73v19.6h6.16c.64,0,1,.32,1,1v4.08c0,.64-.4,1-1,1h-19.2c-.64,0-1-.32-1-1v-4.08c0-.64.32-1,1-1h6.08V404.93h-6.08c-.64,0-1-.32-1-1v-4.08c0-.64.32-1,1-1h19.2a.91.91,0,0,1,1,1V404c0,.64-.4,1-1,1h-6.16v20h29.76v-20h-6.16a.85.85,0,0,1-1-1v-4.08a.85.85,0,0,1,1-1h19.28a.85.85,0,0,1,1,1V404a.85.85,0,0,1-1,1h-6.16v45.44h6.16a.85.85,0,0,1,1,1v4.08a.85.85,0,0,1-1,1Z"/><path class="cls-2" d="M669.77,437.49c.4,9.36,7,13.84,13.28,13.84,6.88,0,11.6-4.32,12.72-6.16a.91.91,0,0,1,1.44-.24l2.16,2.16c.56.48.64,1,.32,1.44-1,1.76-6.48,8.4-17,8.4-10.8,0-19.68-7.6-19.68-20.4,0-13,9.28-20.08,18.88-20.08,11.44,0,18.08,7.6,17.84,20a1,1,0,0,1-1.12,1ZM693,432.61c-.32-6.48-4.16-10.88-11-10.88-5.52,0-11.12,3.2-12.08,10.88Z"/><path class="cls-2" d="M708.57,456.37c-.64,0-1-.32-1-1V452a.91.91,0,0,1,1-1H713V404.29h-4.4a.91.91,0,0,1-1-1v-3.44a.91.91,0,0,1,1-1h8.88c1.6,0,2.16.64,2.16,2V451h4.24a.91.91,0,0,1,1,1v3.44c0,.64-.4,1-1,1Z"/><path class="cls-2" d="M734,456.37c-.64,0-1-.32-1-1V452a.91.91,0,0,1,1-1h4.4V404.29H734a.91.91,0,0,1-1-1v-3.44a.91.91,0,0,1,1-1h8.88c1.6,0,2.16.64,2.16,2V451h4.24a.91.91,0,0,1,1,1v3.44c0,.64-.4,1-1,1Z"/><path class="cls-2" d="M757.93,436.53c0-12.64,8.88-20.08,20-20.08s19.84,7.6,19.84,20.08-8.48,20.4-19.92,20.4S757.93,449.09,757.93,436.53Zm33.2.08c0-9.12-6.32-14.56-13.2-14.56s-13.28,5.44-13.28,14.56,6.08,14.72,13.2,14.72S791.13,445.65,791.13,436.61Z"/><path class="cls-2" d="M809,456.93a3.72,3.72,0,0,1-3.84-3.76,3.8,3.8,0,0,1,7.6,0A3.71,3.71,0,0,1,809,456.93Z"/><text></text><rect class="cls-3" y="514.71" width="1870" height="194"/></g><g id="Layer_5" data-name="Layer 5"><path class="cls-4" d="M1186.91,493.27"/><rect class="cls-5" x="1035.66" y="567.1" width="200.53" height="78.61" rx="12" ry="12"/><g id="_9IGV8R" data-name="9IGV8R"><path class="cls-4" d="M1172,630.3v8.8h-72.13v-8.8Z"/><path class="cls-4" d="M1227,594.32v20.81h-21.27v-8.91h6.09V594.32Z"/><path class="cls-4" d="M1044.79,627.1v-8.79h27.45v8.79Z"/><path class="cls-4" d="M1199.55,627.09v-8.78H1227v8.78Z"/><path class="cls-4" d="M1066,615.16h-21.21v-8.89H1066Z"/><path class="cls-4" d="M1044.8,603.19v-8.87h15.13c0,1.9,0,3.78,0,5.66,0,.8,0,1.6,0,2.4s-.34.82-.93.82c-3.36,0-6.73,0-10.09,0Z"/><path class="cls-4" d="M1212.36,630.28H1227v8.83h-14.65Z"/><path class="cls-4" d="M1175.54,630.27h14.65v8.82h-14.65Z"/><path class="cls-4" d="M1081.62,630.29h14.66v8.83h-14.66Z"/><path class="cls-4" d="M1044.81,630.28h14.7c0,1.35,0,2.65,0,4s0,2.76,0,4.13c0,.46,0,.82-.64.82l-13.74,0a1.26,1.26,0,0,1-.32-.11Z"/><path class="cls-4" d="M1208.86,630.29c0,2.83,0,5.55,0,8.27,0,.71-.49.63-.92.63h-13.73v-8.9Z"/><path class="cls-4" d="M1063.41,630.29H1078v8.82c-.3,0-.6.07-.91.07-4.23,0-8.47,0-12.7,0-.85,0-1.1-.24-1.08-1.09.05-2.28,0-4.55,0-6.83C1063.36,631,1063.39,630.66,1063.41,630.29Z"/><path class="cls-4" d="M1090.91,606.26v8.88H1082v-8.88Z"/><path class="cls-4" d="M1106.84,615.15v-8.86h8.86v8.86Z"/><path class="cls-4" d="M1131.67,606.26h8.89v8.89h-8.89Z"/><path class="cls-4" d="M1156.11,606.24H1165v8.88h-8.84Z"/><path class="cls-4" d="M1168.53,606.25h8.81v8.88h-8.81Z"/><path class="cls-4" d="M1189.78,615.16h-8.84v-8.89h8.84Z"/><path class="cls-4" d="M1193.33,606.23h8.83v8.89h-8.83Z"/><path class="cls-4" d="M1143.71,606.24h8.8v8.89h-8.8Z"/><path class="cls-4" d="M1152.54,582.27v8.83h-8.86v-8.83Z"/><path class="cls-4" d="M1187.12,594.27H1196v8.85h-8.86Z"/><path class="cls-4" d="M1109.52,627.12h-8.86V618.3h8.86Z"/><path class="cls-4" d="M1171.18,594.32v8.8h-8.88v-8.8Z"/><path class="cls-4" d="M1121.91,627.12H1113c0-1.41,0-2.78,0-4.15s0-2.69,0-4c0-.24.33-.68.51-.69,2.77,0,5.55,0,8.38,0Z"/><path class="cls-4" d="M1146.34,594.3v8.82h-8.88V594.3Z"/><path class="cls-4" d="M1134.33,603.14h-8.83v-8.83h8.83Z"/><path class="cls-4" d="M1113,594.28h8.91v8.83c-.3,0-.6.07-.91.07-2.34,0-4.67,0-7,0-.72,0-1-.16-1-1C1113,599.63,1113,597,1113,594.28Z"/><path class="cls-4" d="M1100.66,594.28h8.92c0,1.61,0,3.17,0,4.73,0,1.15,0,2.31,0,3.46,0,.25-.33.68-.51.68-2.78,0-5.56,0-8.39,0Z"/><path class="cls-4" d="M1088.24,594.27h8.83v8.83h-8.83Z"/><path class="cls-4" d="M1097.1,618.33v8.77h-8.87v-8.77Z"/><path class="cls-4" d="M1084.75,627.13h-8.91v-8.91H1084c.44,0,.73.09.72.63C1084.75,621.57,1084.75,624.29,1084.75,627.13Z"/><path class="cls-4" d="M1078.46,615.15h-8.82v-8.89h8.82Z"/><path class="cls-4" d="M1094.49,606.25h8.76v8.87h-8.76Z"/><path class="cls-4" d="M1119.3,606.26h8.81v8.88h-8.81Z"/><path class="cls-4" d="M1066.06,582.23v8.88h-8.93c0-1.39,0-2.75,0-4.12s0-2.69,0-4c0-.24.32-.68.5-.69C1060.44,582.21,1063.22,582.23,1066.06,582.23Z"/><path class="cls-4" d="M1082,591.1c0-2.81,0-5.53,0-8.26,0-.21.32-.59.5-.59,2.78,0,5.57,0,8.41,0v8.88Z"/><path class="cls-4" d="M1115.73,591.14h-8.87v-8.85h8.87Z"/><path class="cls-4" d="M1196,618.28v8.82h-8.87v-8.82Z"/><path class="cls-4" d="M1131.66,591.09V582.3h8.88v8.78Z"/><path class="cls-4" d="M1156.09,591.1v-8.8H1165v8.8Z"/><path class="cls-4" d="M1168.52,582.28h8.82v8.81h-8.82Z"/><path class="cls-4" d="M1189.85,591.13h-8.91v-8.79a3.35,3.35,0,0,1,.61-.11H1189c.45,0,.82,0,.81.64C1189.84,585.58,1189.85,588.3,1189.85,591.13Z"/><path class="cls-4" d="M1202.2,582.23v8.87h-8.94q0-1.72,0-3.43c0-1.57,0-3.14,0-4.71,0-.25.32-.7.49-.7C1196.56,582.21,1199.34,582.23,1202.2,582.23Z"/><path class="cls-4" d="M1214.61,591.12h-8.85V582.3h8.85Z"/><path class="cls-4" d="M1227,582.23v8.88h-8.92c0-1.38,0-2.75,0-4.12s0-2.69,0-4c0-.25.32-.69.5-.69C1221.39,582.21,1224.17,582.23,1227,582.23Z"/><path class="cls-4" d="M1162.31,618.28h8.87v8.82h-8.87Z"/><path class="cls-4" d="M1084.68,603.13h-8.83v-8.81h8.83Z"/><path class="cls-4" d="M1134.4,627.13h-8.91v-8.83c.31,0,.61-.07.92-.07,2.34,0,4.67,0,7,0,.72,0,1,.17,1,1C1134.38,621.78,1134.4,624.4,1134.4,627.13Z"/><path class="cls-4" d="M1146.32,627.12h-8.84v-8.81h8.84Z"/><path class="cls-4" d="M1158.78,627.12h-8.86v-8.83c.38,0,.75-.06,1.12-.06,2.31,0,4.61,0,6.92,0,.28,0,.79.32.79.49C1158.79,621.51,1158.78,624.28,1158.78,627.12Z"/><path class="cls-4" d="M1183.55,618.3v8.81h-8.81V618.3Z"/><path class="cls-4" d="M1044.83,582.22h3.95c1.38,0,2.76,0,4.13,0,.27,0,.75.35.75.54,0,2.75,0,5.5,0,8.32h-8.86Z"/><path class="cls-4" d="M1069.62,591.11v-8.78a5.24,5.24,0,0,1,.74-.11c2.43,0,4.87,0,7.3,0,.28,0,.81.3.81.47.05,2.78,0,5.56,0,8.4Z"/><path class="cls-4" d="M1094.45,591.11v-8.73a1.16,1.16,0,0,1,.35-.13c2.63,0,5.25,0,7.88,0,.22,0,.63.3.63.47,0,2.78,0,5.56,0,8.4Z"/><path class="cls-4" d="M1119.32,582.28h8.78v8.82h-8.78Z"/><path class="cls-4" d="M1072.23,603.19h-4.34c-1.25,0-2.5,0-3.75,0-.27,0-.75-.35-.75-.54,0-2.75,0-5.5,0-8.32h8.87Z"/><path class="cls-4" d="M1149.9,603.18v-8.87h8.89c0,1.65,0,3.28,0,4.9,0,1.09,0,2.18,0,3.26,0,.24-.33.67-.52.67C1155.49,603.2,1152.75,603.18,1149.9,603.18Z"/><path class="cls-4" d="M1174.74,603.08V594.3h8.87c0,.46,0,.92,0,1.39,0,2.21,0,4.42,0,6.63,0,.48,0,.88-.67.88-2.59,0-5.19,0-7.78,0A2.32,2.32,0,0,1,1174.74,603.08Z"/><path class="cls-4" d="M1208.37,594.3v8.82h-8.81V594.3Z"/><path class="cls-4" d="M1115.7,579.16h-8.85V574.3h8.85Z"/><path class="cls-4" d="M1131.65,579.12v-4.83h8.88v4.83Z"/><path class="cls-4" d="M1165,574.31v4.82h-8.87v-4.82Z"/><path class="cls-4" d="M1168.51,579.13V574.3h8.84v4.83Z"/><path class="cls-4" d="M1189.79,574.29v4.84h-8.86v-4.84Z"/><path class="cls-4" d="M1193.32,574.28h8.86v4.86h-8.86Z"/><path class="cls-4" d="M1214.6,579.16h-8.83v-4.85h8.83Z"/><path class="cls-4" d="M1227,579.18h-8.81v-4.9H1227Z"/><path class="cls-4" d="M1090.92,574.28v4.85H1082v-4.85Z"/><path class="cls-4" d="M1066.07,579.16h-8.87v-4.86h8.87Z"/><path class="cls-4" d="M1152.55,574.27v4.86h-8.86v-4.86Z"/><path class="cls-4" d="M1103.28,574.3v4.85h-8.81V574.3Z"/><path class="cls-4" d="M1069.64,574.26h8.79v4.89h-8.79Z"/><path class="cls-4" d="M1128.1,579.16h-8.77v-4.88h8.77Z"/><path class="cls-4" d="M1044.81,574.27h8.81v4.86h-8.81Z"/></g><path class="cls-6" d="M1310.28,601.79s-5.52,44.06-34.77,25.25c-26.59-17.1,18.41-61.89-7.16-78.18-24.38-15.53-101.24-15.47-101.24-15.47"/><g id="HpURTs.tif"><path class="cls-5" d="M1323,584.07v10.05a1.73,1.73,0,0,0-.07.27,11.69,11.69,0,0,1-8.44,10.27c-.54.14-1.1.25-1.64.37h-8.33c-.25-.06-.5-.13-.76-.17-5.39-.88-9.39-5.92-9.4-11.86q0-4.22,0-8.44c0-.15,0-.3,0-.44l.12,0Z"/><path class="cls-5" d="M1304.77,560.56h2.34c0,2.13,0,4.27,0,6.4a.6.6,0,0,1-.34.61,3.74,3.74,0,0,0-1.9,3.5q0,2.91,0,5.83a3.86,3.86,0,0,0,2,3.65c.1.06.24.18.24.28,0,1.08,0,2.17,0,3.26h-12.74c0-.14,0-.25,0-.36q0-5.88,0-11.75a7.73,7.73,0,0,1,.12-1.32c.83-4.71,3.37-7.82,7.47-9.41A21,21,0,0,1,1304.77,560.56Z"/><path class="cls-5" d="M1310.24,560.56h2.34a18.33,18.33,0,0,1,2,.39c4.4,1.37,7.23,4.42,8.24,9.36.1.5.15,1,.22,1.53v12.33c-.19,0-.37,0-.56,0h-12.2c0-1,0-2,0-2.9a.77.77,0,0,1,.42-.8,3.62,3.62,0,0,0,1.81-3.27q0-3.08,0-6.16a3.72,3.72,0,0,0-1.89-3.41.6.6,0,0,1-.34-.62C1310.25,564.82,1310.24,562.69,1310.24,560.56Z"/><path class="cls-5" d="M1306.22,574.35c0-.84,0-1.67,0-2.51a2.48,2.48,0,0,1,1.61-2.35,2.24,2.24,0,0,1,2.57.6,2.37,2.37,0,0,1,.71,1.63c0,1.77.06,3.54,0,5.3a2.45,2.45,0,0,1-2.42,2.34,2.48,2.48,0,0,1-2.45-2.37c-.06-.88,0-1.77,0-2.65Z"/><path class="cls-5" d="M1294.26,583.9l.08-11.18a2.1,2.1,0,0,0,.08-.3c.61-5.6,4-10.09,8.52-11.35.55-.15,1.1-.27,1.65-.4l8.33.06c.25.07.5.15.76.2,5.39,1,9.34,6.66,9.3,13.26q0,4.69-.07,9.38c0,.17,0,.34,0,.49l-.12,0Z"/></g><rect class="cls-5" x="920.2" y="569.94" width="24.38" height="10.09" rx="5.05" ry="5.05"/><circle class="cls-5" cx="974.8" cy="575.39" r="34.2"/><path class="cls-7" d="M980,560.84A22.53,22.53,0,0,1,978.58,550a25.71,25.71,0,1,0,1.19,50.65C987.63,582.09,986.83,578.76,980,560.84Z"/><path class="cls-8" d="M1000.51,575.39A25.71,25.71,0,0,0,978.58,550,22.53,22.53,0,0,0,980,560.84c6.82,17.92,7.62,21.25-.24,39.77A25.71,25.71,0,0,0,1000.51,575.39Z"/><circle class="cls-8" cx="979.9" cy="579.38" r="1.53"/><circle class="cls-8" cx="978.42" cy="572.27" r="3.01"/><rect class="cls-4" x="935.84" y="223.71" width="364.16" height="274.52" rx="12" ry="12"/><path class="cls-9" d="M1152.32,539.64h-68.11c-8.81,0-16-4.33-16-9.63l29.38-60.16c0-5.29-22.17-5.61-13.35-5.61h68.11c8.81,0-14.69.32-14.69,5.61L1168.35,530C1168.35,535.31,1161.14,539.64,1152.32,539.64Z"/><path class="cls-10" d="M1098.91,469.86c0-5.29-22.17-5.61-13.35-5.61h68.11c8.81,0-14.69.32-14.69,5.61L1168,526.78c1.65,3.24-.27,10.76-4.77,11.75-14.69,3.21-37.71,1.12-44.32,1.12"/><rect class="cls-5" x="935.84" y="419.32" width="364.16" height="78.91" rx="12" ry="12"/><rect class="cls-4" x="935.84" y="344.73" width="364.16" height="113.9"/><rect class="cls-11" x="950.28" y="237.25" width="335.28" height="210.15"/><circle class="cls-4" cx="1118.32" cy="479.08" r="6.02"/><rect class="cls-5" x="1062.58" y="530.82" width="110.69" height="8.82" rx="4.41" ry="4.41"/><rect class="cls-9" x="1307" y="569.71" width="4" height="14" rx="2" ry="2"/></g></g></svg>