<svg xmlns="http://www.w3.org/2000/svg" viewBox="0 0 237.12 239.68"><defs><style>.cls-1{fill:#2d150a;}.cls-2{fill:#dbd8d7;}.cls-3{fill:#331809;}.cls-4{fill:#79272d;}.cls-5{fill:#9bd2ca;}.cls-6{fill:#89ada7;}.cls-7{fill:#af9884;}.cls-8{fill:#877a6c;}.cls-9{fill:#93323e;}.cls-10{fill:#cebdab;}.cls-11{fill:#c1a88e;}.cls-12{fill:#c7b299;}.cls-13{fill:#fff;}.cls-14{fill:#070300;}.cls-15{fill:#42210b;}.cls-16{fill:#3d1d0d;}.cls-17{fill:none;stroke:#dbd8d7;stroke-miterlimit:10;stroke-width:2px;}</style></defs><title>Asset 8</title><g id="Layer_2" data-name="Layer 2"><g id="Layer_3" data-name="Layer 3"><rect class="cls-1" x="74.57" y="75.25" width="89.87" height="120.13" rx="12" ry="12"/><circle class="cls-2" cx="118.43" cy="118.43" r="110.53"/><path class="cls-3" d="M157.89,82.08,167.74,168c0,17.55-12.62,31.91-28.05,31.91H97.47C82,199.93,69.42,185.57,69.42,168l12.2-85.95"/><line class="cls-4" x1="119.35" y1="170.43" x2="119.35" y2="239.68"/><line class="cls-4" x1="98.95" y1="224.35" x2="98.95" y2="185.76"/><path class="cls-5" d="M119.35,229V170.43h-5.06A15.38,15.38,0,0,0,99,185.76v38.59a15.25,15.25,0,0,0,.31,3A109.1,109.1,0,0,0,118.1,229Z"/><path class="cls-6" d="M139.74,185.76a15.38,15.38,0,0,0-15.33-15.33h-5.06V229a108.86,108.86,0,0,0,20.16-2.1,15.21,15.21,0,0,0,.23-2.56Z"/><rect class="cls-7" x="112.5" y="150.71" width="13.7" height="30.32" rx="6.85" ry="6.85"/><path class="cls-8" d="M190.55,188.72"/><path class="cls-9" d="M119.35,76.41"/><path class="cls-10" d="M109.86,70h15.52C145,70,161,82.7,161,98.26V137.9c0,15.55-16,28.28-35.6,28.28H109.86"/><path class="cls-11" d="M125.39,70h-6v96.2h6C145,166.18,161,153.45,161,137.9V98.26C161,82.7,145,70,125.39,70Z"/><path class="cls-12" d="M74.26,137.9c0,15.55,16,28.28,35.61,28.28h9.48V70h-9.48C90.28,70,74.26,82.7,74.26,98.26"/><circle cx="103.26" cy="132.68" r="1.56" transform="translate(-56.68 184.52) rotate(-70.07)"/><circle cx="135.41" cy="132.56" r="1.56" transform="translate(-35.37 214.66) rotate(-70.07)"/><path class="cls-4" d="M114.33,152.89a5.61,5.61,0,0,1,10,0,13.1,13.1,0,0,0,3-6.4h-16A13.1,13.1,0,0,0,114.33,152.89Z"/><path class="cls-13" d="M111.06,143.38a17,17,0,0,0,.28,3.1h16a17,17,0,0,0,.28-3.1Z"/><path class="cls-9" d="M114.33,152.89a6.37,6.37,0,0,0,10,0,5.61,5.61,0,0,0-10,0Z"/><g id="lOiyOY.tif"><path class="cls-14" d="M88.87,126.62c-3.08-3.11-3.08-2-3.08-3.11,2.4,0,7.07-1.56,8.7-3.09,2.83-2.65,6-4.59,10.11-4.44a12.43,12.43,0,0,1,8.56,3.58c1,1,2,2,2.89,3.08a2.46,2.46,0,0,0,2.67,1,1.27,1.27,0,0,1,.65-.06c2.08.64,3.26-.58,4.43-2,3.18-3.89,7.12-6.09,12.32-5.46,3.47.42,6.08,2.41,8.56,4.64,2.28,2,5.65,3.13,8.53,3.92v2.53c-2.31-.35-5.93.84-6.25,2.45-.79,4-2.58,7.29-6.16,9.43-6.9,4.12-15.45.89-18.3-6.92-.48-1.32-.86-2.68-1.25-4-.28-1-.79-1.72-1.89-1.68s-1.47.75-1.77,1.68a44.34,44.34,0,0,1-2.15,5.94,12.3,12.3,0,0,1-11.78,6.79A12.54,12.54,0,0,1,92.53,132a27.51,27.51,0,0,1-.79-2.93C91.42,127.54,90.84,126.32,88.87,126.62Zm4.73,1.78a10.83,10.83,0,1,0,10.81-10.86A10.83,10.83,0,0,0,93.6,128.4Zm30,0a10.81,10.81,0,1,0,10.82-10.83A10.81,10.81,0,0,0,123.63,128.36Z"/></g><path class="cls-15" d="M88.87,187.27"/><path class="cls-16" d="M124.19,79.59S83,118.08,72.57,120.88s-4.29,0-4.29,0S65.77,63.12,113.66,64s52.5,17,54.24,23.85,2.41,25.37,2.41,25.37Z"/><path class="cls-16" d="M116.09,67c-37,18.88-30.63,139-30.63,139L60.31,181.25s8.06-77.49,8.39-82.78C71.27,57.29,124.37,62.77,116.09,67Z"/><path class="cls-16" d="M122.19,77.68c43.21,19.16,30.47,129.8,30.47,129.8l30.55-23.09S170,102.2,169.6,96.84C166.6,55,112.53,73.39,122.19,77.68Z"/><circle class="cls-17" cx="118.56" cy="118.56" r="117.56"/></g></g></svg>