<svg xmlns="http://www.w3.org/2000/svg" viewBox="0 0 128 128"><defs><style>.cls-1{fill:#f2f2f2;}</style></defs><title>Asset 1</title><g id="Layer_2" data-name="Layer 2"><g id="Linkedin"><path class="cls-1" d="M64,0a64,64,0,1,0,64,64A64,64,0,0,0,64,0ZM43.94,99.54H29.08V51.75H43.94ZM36.51,45.22a8.61,8.61,0,1,1,8.61-8.61A8.61,8.61,0,0,1,36.51,45.22ZM99.58,99.54H84.72V76.3c0-5.54-.1-12.67-7.72-12.67s-8.91,6-8.91,12.28V99.54H53.26V51.75H67.5v6.53h.2c2-3.76,6.83-7.72,14.05-7.72,15,0,17.82,9.9,17.82,22.77Z"/></g></g></svg>