<svg xmlns="http://www.w3.org/2000/svg" viewBox="0 0 128 128"><defs><style>.cls-1{fill:#f2f2f2;}</style></defs><title>Asset 4</title><g id="Layer_2" data-name="Layer 2"><g id="Github"><path class="cls-1" d="M64,0a64,64,0,1,0,64,64A64,64,0,0,0,64,0ZM25.55,33.91a6.1,6.1,0,0,1,4-1.84c.4,0,.81,0,1.22,0H97.35a6.9,6.9,0,0,1,3.45.77,7.17,7.17,0,0,1,4,6.55,11.69,11.69,0,0,1-2,6.5A22.06,22.06,0,0,1,96.74,52Q86,59.4,75.36,66.84c-1.5,1-3,2.13-4.48,3.14a22.11,22.11,0,0,1-4.1,2.27,7.26,7.26,0,0,1-5.75-.1A22.39,22.39,0,0,1,57.18,70c-2.06-1.4-4.07-2.87-6.11-4.29L33.91,53.75c-1.35-.94-2.72-1.85-4-2.86a21.92,21.92,0,0,1-5.42-6.32,8.36,8.36,0,0,1-1.21-3.71A8.94,8.94,0,0,1,25.55,33.91ZM104.83,53q0,8.39,0,16.78,0,9.61,0,19.22a6.93,6.93,0,0,1-2.45,5.3A6.75,6.75,0,0,1,99.06,96a8.15,8.15,0,0,1-1.5.15h-67a7.33,7.33,0,0,1-7.06-5.54,8.47,8.47,0,0,1-.2-1.79q0-17.93,0-35.86v-.13c.4.38.83.76,1.24,1.16a31.27,31.27,0,0,0,4.08,3.18q8.68,6,17.34,12c2.53,1.76,5,3.57,7.51,5.38a26.23,26.23,0,0,0,6.5,3.4,11.56,11.56,0,0,0,5.06.72,13.32,13.32,0,0,0,3.74-.93,24.62,24.62,0,0,0,4.55-2.26c1.14-.76,2.25-1.56,3.37-2.35,4.74-3.33,9.47-6.68,14.22-10,3.3-2.3,6.64-4.53,10-6.81a22.7,22.7,0,0,0,3.8-3.34l.21-.23Z"/></g></g></svg>