<svg id="Layer_1" data-name="Layer 1" xmlns="http://www.w3.org/2000/svg" viewBox="0 0 1000.47 400.47"><defs><style>.cls-1{fill:#e87162;}.cls-2{fill:#b4b3af;}.cls-3{fill:#698c86;}.cls-4{fill:#cc5e5e;}.cls-5{fill:#9cd1c9;}</style></defs><title>triangles</title><polygon class="cls-1" points="400.21 160.47 360.47 160.47 360.47 200.24 400.21 160.47"/><polygon class="cls-1" points="440.2 160.47 400.47 160.47 400.47 200.22 440.2 160.47"/><polygon class="cls-1" points="520.18 160.47 480.47 160.47 480.47 200.21 520.18 160.47"/><polygon class="cls-1" points="280.47 160.47 280 160.47 240.47 200 240.47 200.47 280 200.47 280.47 200 280.47 160.47"/><polygon class="cls-2" points="560.17 160.47 520.47 160.47 520.47 200.19 560.17 160.47"/><polygon class="cls-1" points="600.16 160.47 560.47 160.47 560.47 200.18 600.16 160.47"/><polygon class="cls-2" points="480.19 160.47 440.47 160.47 440.47 200.22 480.19 160.47"/><polygon class="cls-1" points="240 200.47 240.47 200.47 240.47 200 240 200.47"/><polygon class="cls-1" points="360 160.47 320.47 160.47 320.47 200 360 160.47"/><polygon class="cls-2" points="240.47 160.47 240 160.47 200.47 200 200.47 200.47 240 200.47 240.47 200 240.47 160.47"/><polygon class="cls-3" points="320 160.47 280.47 160.47 280.47 200 320 160.47"/><polygon class="cls-4" points="280 160.47 240.47 160.47 240.47 200 280 160.47"/><polygon class="cls-1" points="720.47 160.13 720.13 160.47 720.47 160.47 720.47 160.13"/><polygon class="cls-1" points="280 200.47 280.47 200.47 280.47 200 280 200.47"/><polygon class="cls-1" points="680.47 160.14 680.14 160.47 680.47 160.47 680.47 160.14"/><polygon class="cls-1" points="600.47 160.16 600.16 160.47 600.47 160.47 600.47 160.16"/><polygon class="cls-1" points="640.47 160.15 640.15 160.47 640.47 160.47 640.47 160.15"/><polygon class="cls-1" points="560.47 160.17 560.17 160.47 560.47 160.47 560.47 160.17"/><polygon class="cls-1" points="520.47 160.18 520.18 160.47 520.47 160.47 520.47 160.18"/><polygon class="cls-3" points="760.12 160.47 720.47 160.47 720.47 200.14 760.12 160.47"/><polygon class="cls-1" points="480.47 160.19 480.19 160.47 480.47 160.47 480.47 160.19"/><polygon class="cls-5" points="720.13 160.47 680.47 160.47 680.47 200.15 720.13 160.47"/><polygon class="cls-1" points="680.14 160.47 640.47 160.47 640.47 200.16 680.14 160.47"/><polygon class="cls-1" points="800.11 160.47 760.47 160.47 760.47 200.13 800.11 160.47"/><polygon class="cls-1" points="640.15 160.47 600.47 160.47 600.47 200.17 640.15 160.47"/><polygon class="cls-1" points="760.47 160.12 760.12 160.47 760.47 160.47 760.47 160.12"/><polygon class="cls-1" points="640.16 200.47 640.47 200.47 640.47 200.16 640.16 200.47"/><polygon class="cls-1" points="680.15 200.47 680.47 200.47 680.47 200.15 680.15 200.47"/><polygon class="cls-5" points="640.47 160.47 640.15 160.47 600.47 200.17 600.47 200.47 640.16 200.47 640.47 200.16 640.47 160.47"/><polygon class="cls-1" points="680.47 160.47 680.14 160.47 640.47 200.16 640.47 200.47 680.15 200.47 680.47 200.15 680.47 160.47"/><polygon class="cls-1" points="600.17 200.47 600.47 200.47 600.47 200.17 600.17 200.47"/><polygon class="cls-5" points="600.47 160.47 600.16 160.47 560.47 200.18 560.47 200.47 600.17 200.47 600.47 200.17 600.47 160.47"/><polygon class="cls-1" points="560.18 200.47 560.47 200.47 560.47 200.18 560.18 200.47"/><polygon class="cls-1" points="760.13 200.47 760.47 200.47 760.47 200.13 760.13 200.47"/><polygon class="cls-5" points="720.47 160.47 720.13 160.47 680.47 200.15 680.47 200.47 720.14 200.47 720.47 200.14 720.47 160.47"/><polygon class="cls-1" points="800.12 200.47 800.47 200.47 800.47 200.12 800.12 200.47"/><polygon class="cls-2" points="760.47 160.47 760.12 160.47 720.47 200.14 720.47 200.47 760.13 200.47 760.47 200.13 760.47 160.47"/><polygon class="cls-1" points="720.14 200.47 720.47 200.47 720.47 200.14 720.14 200.47"/><polygon class="cls-1" points="520.47 160.47 520.18 160.47 480.47 200.21 480.47 200.47 520.2 200.47 520.47 200.19 520.47 160.47"/><polygon class="cls-1" points="360.24 200.47 360.47 200.47 360.47 200.24 360.24 200.47"/><polygon class="cls-1" points="520.2 200.47 520.47 200.47 520.47 200.19 520.2 200.47"/><polygon class="cls-4" points="360.47 160.47 360 160.47 320.47 200 320.47 200.47 360.24 200.47 360.47 200.24 360.47 160.47"/><polygon class="cls-1" points="320 200.47 320.47 200.47 320.47 200 320 200.47"/><polygon class="cls-1" points="400.23 200.47 400.47 200.47 400.47 200.22 400.23 200.47"/><polygon class="cls-3" points="400.47 160.47 400.21 160.47 360.47 200.24 360.47 200.47 400.23 200.47 400.47 200.22 400.47 160.47"/><polygon class="cls-3" points="320.47 160.47 320 160.47 280.47 200 280.47 200.47 320 200.47 320.47 200 320.47 160.47"/><polygon class="cls-1" points="440.47 160.47 440.2 160.47 400.47 200.22 400.47 200.47 440.21 200.47 440.47 200.22 440.47 160.47"/><polygon class="cls-1" points="480.2 200.47 480.47 200.47 480.47 200.21 480.2 200.47"/><polygon class="cls-3" points="480.47 160.47 480.19 160.47 440.47 200.22 440.47 200.47 480.2 200.47 480.47 200.21 480.47 160.47"/><polygon class="cls-1" points="440.21 200.47 440.47 200.47 440.47 200.22 440.21 200.47"/><polygon class="cls-1" points="160 160.47 160.47 160.47 160.47 160 160 160.47"/><polygon class="cls-1" points="520.47 120.17 520.17 120.47 520.47 120.47 520.47 120.17"/><polygon class="cls-1" points="680.47 120.13 680.13 120.47 680.47 120.47 680.47 120.13"/><polygon class="cls-1" points="720.47 120.12 720.12 120.47 720.47 120.47 720.47 120.12"/><polygon class="cls-1" points="760.47 120.11 760.11 120.47 760.47 120.47 760.47 120.11"/><polygon class="cls-1" points="440.47 160.21 440.2 160.47 440.47 160.47 440.47 160.21"/><polygon class="cls-1" points="560.47 120.16 560.16 120.47 560.47 120.47 560.47 120.16"/><polygon class="cls-1" points="640.47 120.14 640.14 120.47 640.47 120.47 640.47 120.14"/><polygon class="cls-1" points="880.09 160.47 840.47 160.47 840.47 200.11 880.09 160.47"/><polygon class="cls-2" points="880.1 200.47 840.47 200.47 840.47 240.12 880.1 200.47"/><polygon class="cls-1" points="840.47 160.1 840.1 160.47 840.47 160.47 840.47 160.1"/><polygon class="cls-1" points="800.47 120.1 800.1 120.47 800.47 120.47 800.47 120.1"/><polygon class="cls-2" points="840.09 120.47 800.47 120.47 800.47 160.11 840.09 120.47"/><polygon class="cls-1" points="320.47 120 320 120.47 320.47 120.47 320.47 120"/><polygon class="cls-1" points="160.47 120.47 160.47 160 200 120.47 160.47 120.47"/><polygon class="cls-1" points="240.47 120 240 120.47 240.47 120.47 240.47 120"/><polygon class="cls-1" points="200.47 120 200 120.47 200.47 120.47 200.47 120"/><polygon class="cls-1" points="160 120.47 160.47 120.47 160.47 120 160 120.47"/><polygon class="cls-1" points="160 200.47 160.47 200.47 160.47 200 160 200.47"/><polygon class="cls-1" points="480.47 120.19 480.19 120.47 480.47 120.47 480.47 120.19"/><polygon class="cls-1" points="800.47 200.47 840.11 200.47 840.47 200.11 840.47 160.47 840.1 160.47 800.47 200.12 800.47 200.47"/><polygon class="cls-1" points="400.47 120 400 120.47 400.47 120.47 400.47 120"/><polygon class="cls-1" points="440.47 120.19 440.19 120.47 440.47 120.47 440.47 120.19"/><polygon class="cls-1" points="840.47 200.47 840.47 200.11 840.11 200.47 840.47 200.47"/><polygon class="cls-1" points="280.47 120 280 120.47 280.47 120.47 280.47 120"/><polygon class="cls-1" points="360.47 120 360 120.47 360.47 120.47 360.47 120"/><polygon class="cls-1" points="600.47 120.15 600.15 120.47 600.47 120.47 600.47 120.15"/><polygon class="cls-5" points="200.47 240 240 200.47 200.47 200.47 200.47 240"/><polygon class="cls-1" points="200 200.47 200.47 200.47 200.47 200 200 200.47"/><polygon class="cls-1" points="200.47 160.47 200.47 200 240 160.47 200.47 160.47"/><polygon class="cls-1" points="200 160.47 200.47 160.47 200.47 160 200 160.47"/><polygon class="cls-2" points="280.47 240 320 200.47 280.47 200.47 280.47 240"/><polygon class="cls-1" points="240.47 240 280 200.47 240.47 200.47 240.47 240"/><polygon class="cls-1" points="240.47 160 240 160.47 240.47 160.47 240.47 160"/><polygon class="cls-1" points="400.47 160.22 400.21 160.47 400.47 160.47 400.47 160.22"/><polygon class="cls-1" points="360.47 160 360 160.47 360.47 160.47 360.47 160"/><polygon class="cls-1" points="320.47 160 320 160.47 320.47 160.47 320.47 160"/><polygon class="cls-1" points="320.47 240.26 360.24 200.47 320.47 200.47 320.47 240.26"/><polygon class="cls-1" points="280.47 160 280 160.47 280.47 160.47 280.47 160"/><polygon class="cls-3" points="600.47 240.18 640.16 200.47 600.47 200.47 600.47 240.18"/><polygon class="cls-1" points="640.47 240.17 680.15 200.47 640.47 200.47 640.47 240.17"/><polygon class="cls-1" points="680.47 240.16 720.14 200.47 680.47 200.47 680.47 240.16"/><polygon class="cls-1" points="720.47 240.15 760.13 200.47 720.47 200.47 720.47 240.15"/><polygon class="cls-2" points="800.47 240.13 840.11 200.47 800.47 200.47 800.47 240.13"/><polygon class="cls-2" points="760.47 240.14 800.12 200.47 760.47 200.47 760.47 240.14"/><polygon class="cls-1" points="360.47 240.25 400.23 200.47 360.47 200.47 360.47 240.25"/><polygon class="cls-1" points="400.47 240.24 440.21 200.47 400.47 200.47 400.47 240.24"/><polygon class="cls-1" points="440.47 240.22 480.2 200.47 440.47 200.47 440.47 240.22"/><polygon class="cls-1" points="560.47 240.19 600.17 200.47 560.47 200.47 560.47 240.19"/><polygon class="cls-1" points="520.47 240.21 560.18 200.47 520.47 200.47 520.47 240.21"/><polygon class="cls-2" points="480.47 240.22 520.2 200.47 480.47 200.47 480.47 240.22"/><polygon class="cls-2" points="200.47 160.47 240 160.47 240.47 160 240.47 120.47 240 120.47 200.47 160 200.47 160.47"/><polygon class="cls-1" points="800.13 240.47 800.47 240.47 800.47 240.13 800.13 240.47"/><polygon class="cls-1" points="800.47 200.47 800.12 200.47 760.47 240.14 760.47 240.47 800.13 240.47 800.47 240.13 800.47 200.47"/><polygon class="cls-4" points="840.47 200.47 840.11 200.47 800.47 240.13 800.47 240.47 840.12 240.47 840.47 240.12 840.47 200.47"/><polygon class="cls-3" points="760.47 200.47 760.13 200.47 720.47 240.15 720.47 240.47 760.14 240.47 760.47 240.14 760.47 200.47"/><polygon class="cls-1" points="840.12 240.47 840.47 240.47 840.47 240.12 840.12 240.47"/><polygon class="cls-1" points="760.14 240.47 760.47 240.47 760.47 240.14 760.14 240.47"/><polygon class="cls-1" points="880.47 200.47 880.47 200.1 880.1 200.47 880.47 200.47"/><polygon class="cls-1" points="880.47 160.47 880.47 160.09 880.09 160.47 880.47 160.47"/><polygon class="cls-1" points="840.47 240.12 840.47 240.47 880.11 240.47 880.47 240.11 880.47 200.47 880.1 200.47 840.47 240.12"/><polygon class="cls-1" points="840.47 160.47 880.09 160.47 880.47 160.09 880.47 120.47 880.08 120.47 840.47 160.1 840.47 160.47"/><polygon class="cls-1" points="720.15 240.47 720.47 240.47 720.47 240.15 720.15 240.47"/><polygon class="cls-5" points="840.47 200.11 840.47 200.47 880.1 200.47 880.47 200.1 880.47 160.47 880.09 160.47 840.47 200.11"/><polygon class="cls-1" points="480.21 240.47 480.47 240.47 480.47 240.22 480.21 240.47"/><polygon class="cls-1" points="600.47 200.47 600.17 200.47 560.47 240.19 560.47 240.47 600.18 240.47 600.47 240.18 600.47 200.47"/><polygon class="cls-1" points="560.2 240.47 560.47 240.47 560.47 240.19 560.2 240.47"/><polygon class="cls-1" points="520.21 240.47 520.47 240.47 520.47 240.21 520.21 240.47"/><polygon class="cls-5" points="720.47 200.47 720.14 200.47 680.47 240.16 680.47 240.47 720.15 240.47 720.47 240.15 720.47 200.47"/><polygon class="cls-3" points="880.08 120.47 840.47 120.47 840.47 160.1 880.08 120.47"/><polygon class="cls-1" points="520.47 200.47 520.2 200.47 480.47 240.22 480.47 240.47 520.21 240.47 520.47 240.21 520.47 200.47"/><polygon class="cls-3" points="560.47 200.47 560.18 200.47 520.47 240.21 520.47 240.47 560.2 240.47 560.47 240.19 560.47 200.47"/><polygon class="cls-1" points="600.18 240.47 600.47 240.47 600.47 240.18 600.18 240.47"/><polygon class="cls-3" points="680.47 200.47 680.15 200.47 640.47 240.17 640.47 240.47 680.16 240.47 680.47 240.16 680.47 200.47"/><polygon class="cls-1" points="680.16 240.47 680.47 240.47 680.47 240.16 680.16 240.47"/><polygon class="cls-1" points="640.17 240.47 640.47 240.47 640.47 240.17 640.17 240.47"/><polygon class="cls-5" points="640.47 200.47 640.16 200.47 600.47 240.18 600.47 240.47 640.17 240.47 640.47 240.17 640.47 200.47"/><polygon class="cls-1" points="360.47 120.47 400 120.47 400.47 120 400.47 80.47 400 80.47 360.47 120 360.47 120.47"/><polygon class="cls-1" points="560.15 80.47 520.47 80.47 520.47 120.17 560.15 80.47"/><polygon class="cls-1" points="480.47 120.47 520.17 120.47 520.47 120.17 520.47 80.47 520.16 80.47 480.47 120.19 480.47 120.47"/><polygon class="cls-2" points="520.47 120.47 560.16 120.47 560.47 120.16 560.47 80.47 560.15 80.47 520.47 120.17 520.47 120.47"/><polygon class="cls-3" points="600.14 80.47 560.47 80.47 560.47 120.16 600.14 80.47"/><polygon class="cls-1" points="560.47 120.47 600.15 120.47 600.47 120.15 600.47 80.47 600.14 80.47 560.47 120.16 560.47 120.47"/><polygon class="cls-5" points="520.16 80.47 480.47 80.47 480.47 120.19 520.16 80.47"/><polygon class="cls-5" points="640.13 80.47 600.47 80.47 600.47 120.15 640.13 80.47"/><polygon class="cls-1" points="800.47 160.11 800.47 160.47 840.1 160.47 840.47 160.1 840.47 120.47 840.09 120.47 800.47 160.11"/><polygon class="cls-4" points="480.47 200.47 480.2 200.47 440.47 240.22 440.47 240.47 480.21 240.47 480.47 240.22 480.47 200.47"/><polygon class="cls-1" points="440.47 120.47 480.19 120.47 480.47 120.19 480.47 80.47 480.17 80.47 440.47 120.19 440.47 120.47"/><polygon class="cls-3" points="480.17 80.47 440.47 80.47 440.47 120.19 480.17 80.47"/><polygon class="cls-1" points="400.47 120.47 440.19 120.47 440.47 120.19 440.47 80.47 440 80.47 400.47 120 400.47 120.47"/><polygon class="cls-5" points="440 80.47 400.47 80.47 400.47 120 440 80.47"/><polygon class="cls-1" points="840.08 80.47 800.47 80.47 800.47 120.1 840.08 80.47"/><polygon class="cls-1" points="720.47 120.47 760.11 120.47 760.47 120.11 760.47 80.47 760.1 80.47 720.47 120.12 720.47 120.47"/><polygon class="cls-1" points="800.09 80.47 760.47 80.47 760.47 120.11 800.09 80.47"/><polygon class="cls-2" points="760.47 120.47 800.1 120.47 800.47 120.1 800.47 80.47 800.09 80.47 760.47 120.11 760.47 120.47"/><polygon class="cls-1" points="600.47 120.47 640.14 120.47 640.47 120.14 640.47 80.47 640.13 80.47 600.47 120.15 600.47 120.47"/><polygon class="cls-1" points="840.47 120.47 840.47 120.09 840.09 120.47 840.47 120.47"/><polygon class="cls-2" points="800.47 120.47 840.09 120.47 840.47 120.09 840.47 80.47 840.08 80.47 800.47 120.1 800.47 120.47"/><polygon class="cls-3" points="760.1 80.47 720.47 80.47 720.47 120.12 760.1 80.47"/><polygon class="cls-1" points="640.47 120.47 680.13 120.47 680.47 120.13 680.47 80.47 680.12 80.47 640.47 120.14 640.47 120.47"/><polygon class="cls-2" points="680.12 80.47 640.47 80.47 640.47 120.14 680.12 80.47"/><polygon class="cls-5" points="680.47 120.47 720.12 120.47 720.47 120.12 720.47 80.47 720.11 80.47 680.47 120.13 680.47 120.47"/><polygon class="cls-2" points="720.11 80.47 680.47 80.47 680.47 120.13 720.11 80.47"/><polygon class="cls-3" points="440.47 160.47 480.19 160.47 480.47 160.19 480.47 120.47 480.19 120.47 440.47 160.21 440.47 160.47"/><polygon class="cls-1" points="560.16 120.47 520.47 120.47 520.47 160.18 560.16 120.47"/><polygon class="cls-1" points="480.47 160.47 520.18 160.47 520.47 160.18 520.47 120.47 520.17 120.47 480.47 160.19 480.47 160.47"/><polygon class="cls-4" points="520.17 120.47 480.47 120.47 480.47 160.19 520.17 120.47"/><polygon class="cls-4" points="840.1 160.47 800.47 160.47 800.47 200.12 840.1 160.47"/><polygon class="cls-4" points="600.15 120.47 560.47 120.47 560.47 160.17 600.15 120.47"/><polygon class="cls-5" points="520.47 160.47 560.17 160.47 560.47 160.17 560.47 120.47 560.16 120.47 520.47 160.18 520.47 160.47"/><polygon class="cls-3" points="400.47 160.47 440.2 160.47 440.47 160.21 440.47 120.47 440.19 120.47 400.47 160.22 400.47 160.47"/><polygon class="cls-1" points="360.47 160.47 400.21 160.47 400.47 160.22 400.47 120.47 400 120.47 360.47 160 360.47 160.47"/><polygon class="cls-1" points="400 120.47 360.47 120.47 360.47 160 400 120.47"/><polygon class="cls-1" points="560.47 160.47 600.16 160.47 600.47 160.16 600.47 120.47 600.15 120.47 560.47 160.17 560.47 160.47"/><polygon class="cls-5" points="440.19 120.47 400.47 120.47 400.47 160.22 440.19 120.47"/><polygon class="cls-5" points="480.19 120.47 440.47 120.47 440.47 160.21 480.19 120.47"/><polygon class="cls-1" points="760.11 120.47 720.47 120.47 720.47 160.13 760.11 120.47"/><polygon class="cls-1" points="760.47 160.47 800.11 160.47 800.47 160.11 800.47 120.47 800.1 120.47 760.47 160.12 760.47 160.47"/><polygon class="cls-5" points="800.1 120.47 760.47 120.47 760.47 160.12 800.1 120.47"/><polygon class="cls-1" points="720.47 160.47 760.12 160.47 760.47 160.12 760.47 120.47 760.11 120.47 720.47 160.13 720.47 160.47"/><polygon class="cls-2" points="320.47 160.47 360 160.47 360.47 160 360.47 120.47 360 120.47 320.47 160 320.47 160.47"/><polygon class="cls-4" points="640.14 120.47 600.47 120.47 600.47 160.16 640.14 120.47"/><polygon class="cls-1" points="440.23 240.47 440.47 240.47 440.47 240.22 440.23 240.47"/><polygon class="cls-1" points="800.47 160.47 800.47 160.11 800.11 160.47 800.47 160.47"/><polygon class="cls-1" points="600.47 160.47 640.15 160.47 640.47 160.15 640.47 120.47 640.14 120.47 600.47 160.16 600.47 160.47"/><polygon class="cls-2" points="680.13 120.47 640.47 120.47 640.47 160.15 680.13 120.47"/><polygon class="cls-3" points="640.47 160.47 680.14 160.47 680.47 160.14 680.47 120.47 680.13 120.47 640.47 160.15 640.47 160.47"/><polygon class="cls-1" points="720.12 120.47 680.47 120.47 680.47 160.14 720.12 120.47"/><polygon class="cls-4" points="680.47 160.47 720.13 160.47 720.47 160.13 720.47 120.47 720.12 120.47 680.47 160.14 680.47 160.47"/><polygon class="cls-5" points="760.47 200.13 760.47 200.47 800.12 200.47 800.47 200.12 800.47 160.47 800.11 160.47 760.47 200.13"/><polygon class="cls-1" points="320.26 240.47 320.47 240.47 320.47 240.26 320.26 240.47"/><polygon class="cls-1" points="280 240.47 280.47 240.47 280.47 240 280 240.47"/><polygon class="cls-1" points="320.47 200.47 320 200.47 280.47 240 280.47 240.47 320.26 240.47 320.47 240.26 320.47 200.47"/><polygon class="cls-4" points="280.47 200.47 280 200.47 240.47 240 240.47 240.47 280 240.47 280.47 240 280.47 200.47"/><polygon class="cls-3" points="240.47 200.47 240 200.47 200.47 240 200.47 240.47 240 240.47 240.47 240 240.47 200.47"/><polygon class="cls-1" points="240 240.47 240.47 240.47 240.47 240 240 240.47"/><polygon class="cls-1" points="360.25 240.47 360.47 240.47 360.47 240.25 360.25 240.47"/><polygon class="cls-1" points="440.47 200.47 440.21 200.47 400.47 240.24 400.47 240.47 440.23 240.47 440.47 240.22 440.47 200.47"/><polygon class="cls-1" points="400.24 240.47 400.47 240.47 400.47 240.24 400.24 240.47"/><polygon class="cls-1" points="200 240.47 200.47 240.47 200.47 240 200 240.47"/><polygon class="cls-5" points="360.47 200.47 360.24 200.47 320.47 240.26 320.47 240.47 360.25 240.47 360.47 240.25 360.47 200.47"/><polygon class="cls-5" points="400.47 200.47 400.23 200.47 360.47 240.25 360.47 240.47 400.24 240.47 400.47 240.24 400.47 200.47"/><polygon class="cls-4" points="200.47 160 200.47 120.47 200 120.47 160.47 160 160.47 160.47 200 160.47 200.47 160"/><polygon class="cls-1" points="240.47 160.47 280 160.47 280.47 160 280.47 120.47 280 120.47 240.47 160 240.47 160.47"/><polygon class="cls-3" points="280 120.47 240.47 120.47 240.47 160 280 120.47"/><polygon class="cls-4" points="320 120.47 280.47 120.47 280.47 160 320 120.47"/><polygon class="cls-1" points="160 240.47 160.47 240.47 160.47 240 160 240.47"/><polygon class="cls-1" points="280.47 160.47 320 160.47 320.47 160 320.47 120.47 320 120.47 280.47 160 280.47 160.47"/><polygon class="cls-5" points="240 120.47 200.47 120.47 200.47 160 240 120.47"/><polygon class="cls-2" points="160.47 200.47 160.47 240 200 200.47 160.47 200.47"/><polygon class="cls-4" points="200.47 200 200.47 160.47 200 160.47 160.47 200 160.47 200.47 200 200.47 200.47 200"/><polygon class="cls-1" points="200.47 200.47 200 200.47 160.47 240 160.47 240.47 200 240.47 200.47 240 200.47 200.47"/><polygon class="cls-5" points="160.47 160.47 160.47 200 200 160.47 160.47 160.47"/><polygon class="cls-1" points="360 120.47 320.47 120.47 320.47 160 360 120.47"/><polygon class="cls-1" points="360.47 360.28 400.26 320.47 360.47 320.47 360.47 360.28"/><polygon class="cls-5" points="1000.1 320.47 960.47 320.47 960.47 360.12 1000.1 320.47"/><polygon class="cls-1" points="960.47 320.47 960.47 320.11 960.11 320.47 960.47 320.47"/><polygon class="cls-2" points="640.47 360.2 680.18 320.47 640.47 320.47 640.47 360.2"/><polygon class="cls-1" points="1000.07 200.47 960.47 200.47 960.47 240.09 1000.07 200.47"/><polygon class="cls-1" points="1000.09 280.47 960.47 280.47 960.47 320.11 1000.09 280.47"/><polygon class="cls-1" points="880.47 360.14 920.12 320.47 880.47 320.47 880.47 360.14"/><polygon class="cls-5" points="1000.08 240.47 960.47 240.47 960.47 280.1 1000.08 240.47"/><polygon class="cls-2" points="720.47 360.18 760.16 320.47 720.47 320.47 720.47 360.18"/><polygon class="cls-1" points="680.47 360.19 720.17 320.47 680.47 320.47 680.47 360.19"/><polygon class="cls-5" points="840.47 360.15 880.13 320.47 840.47 320.47 840.47 360.15"/><polygon class="cls-5" points="800.47 360.16 840.14 320.47 800.47 320.47 800.47 360.16"/><polygon class="cls-1" points="760.47 360.17 800.15 320.47 760.47 320.47 760.47 360.17"/><polygon class="cls-1" points="920.47 360.13 960.11 320.47 920.47 320.47 920.47 360.13"/><polygon class="cls-1" points="840.47 0.06 840.06 0.47 840.47 0.47 840.47 0.06"/><polygon class="cls-1" points="880.47 0.05 880.05 0.47 880.47 0.47 880.47 0.05"/><polygon class="cls-1" points="80.47 40.27 80.27 40.47 80.47 40.47 80.47 40.27"/><polygon class="cls-1" points="920.47 0.04 920.04 0.47 920.47 0.47 920.47 0.04"/><polygon class="cls-1" points="720.47 0.09 720.09 0.47 720.47 0.47 720.47 0.09"/><polygon class="cls-1" points="760.47 0.08 760.08 0.47 760.47 0.47 760.47 0.08"/><polygon class="cls-1" points="960.03 0.47 920.47 0.47 920.47 40.05 960.03 0.47"/><polygon class="cls-3" points="1000.05 120.47 960.47 120.47 960.47 160.07 1000.05 120.47"/><polygon class="cls-1" points="1000.04 80.47 960.47 80.47 960.47 120.06 1000.04 80.47"/><polygon class="cls-1" points="1000.06 160.47 960.47 160.47 960.47 200.08 1000.06 160.47"/><polygon class="cls-1" points="960.47 40.04 960.04 40.47 960.47 40.47 960.47 40.04"/><polygon class="cls-1" points="1000.03 40.47 960.47 40.47 960.47 80.05 1000.03 40.47"/><polygon class="cls-1" points="480.47 360.25 520.23 320.47 480.47 320.47 480.47 360.25"/><polygon class="cls-1" points="80 240.47 80.47 240.47 80.47 240 80 240.47"/><polygon class="cls-1" points="80.3 160.47 80.47 160.47 80.47 160.3 80.3 160.47"/><polygon class="cls-1" points="40.47 280.47 40.47 320 80 280.47 40.47 280.47"/><polygon class="cls-1" points="80 200.47 80.47 200.47 80.47 200 80 200.47"/><polygon class="cls-1" points="40.47 360 80 320.47 40.47 320.47 40.47 360"/><polygon class="cls-1" points="40 320.47 40.47 320.47 40.47 320 40 320.47"/><polygon class="cls-1" points="40.28 40.47 40.47 40.47 40.47 40.28 40.28 40.47"/><polygon class="cls-1" points="80.47 360 120 320.47 80.47 320.47 80.47 360"/><polygon class="cls-1" points="40.47 40.47 40.47 80.29 80.27 40.47 40.47 40.47"/><polygon class="cls-1" points="40.29 80.47 40.47 80.47 40.47 80.29 40.29 80.47"/><polygon class="cls-1" points="40.47 160.31 80.29 120.47 40.47 120.47 40.47 160.31"/><polygon class="cls-1" points="40.3 120.47 40.47 120.47 40.47 120.3 40.3 120.47"/><polygon class="cls-5" points="400 80.47 360.47 80.47 360.47 120 400 80.47"/><polygon class="cls-2" points="440.47 360.25 480.24 320.47 440.47 320.47 440.47 360.25"/><polygon class="cls-1" points="120.47 360 160 320.47 120.47 320.47 120.47 360"/><polygon class="cls-1" points="680.47 0.1 680.1 0.47 680.47 0.47 680.47 0.1"/><polygon class="cls-1" points="520.47 360.24 560.22 320.47 520.47 320.47 520.47 360.24"/><polygon class="cls-1" points="560.47 360.23 600.21 320.47 560.47 320.47 560.47 360.23"/><polygon class="cls-4" points="600.47 360.21 640.2 320.47 600.47 320.47 600.47 360.21"/><polygon class="cls-2" points="400.47 360.27 440.25 320.47 400.47 320.47 400.47 360.27"/><polygon class="cls-1" points="200.47 360.32 240.3 320.47 200.47 320.47 200.47 360.32"/><polygon class="cls-1" points="160.47 360 200 320.47 160.47 320.47 160.47 360"/><polygon class="cls-2" points="240.47 360.31 280.29 320.47 240.47 320.47 240.47 360.31"/><polygon class="cls-1" points="280.47 360.3 320.28 320.47 280.47 320.47 280.47 360.3"/><polygon class="cls-1" points="320.47 360.29 360.27 320.47 320.47 320.47 320.47 360.29"/><polygon class="cls-1" points="800.47 0.07 800.07 0.47 800.47 0.47 800.47 0.07"/><polygon class="cls-1" points="480.47 400.25 520.24 360.47 480.47 360.47 480.47 400.25"/><polygon class="cls-1" points="520.47 400.25 560.23 360.47 520.47 360.47 520.47 400.25"/><polygon class="cls-1" points="440.47 400.27 480.25 360.47 440.47 360.47 440.47 400.27"/><polygon class="cls-1" points="560.47 400.24 600.22 360.47 560.47 360.47 560.47 400.24"/><polygon class="cls-1" points="600.47 400.23 640.21 360.47 600.47 360.47 600.47 400.23"/><polygon class="cls-2" points="400.47 400.28 440.26 360.47 400.47 360.47 400.47 400.28"/><polygon class="cls-1" points="640.47 400.21 680.2 360.47 640.47 360.47 640.47 400.21"/><polygon class="cls-1" points="240.47 400.32 280.3 360.47 240.47 360.47 240.47 400.32"/><polygon class="cls-2" points="200.47 400.33 240.31 360.47 200.47 360.47 200.47 400.33"/><polygon class="cls-1" points="320.47 400.3 360.28 360.47 320.47 360.47 320.47 400.3"/><polygon class="cls-1" points="360.47 400.29 400.27 360.47 360.47 360.47 360.47 400.29"/><polygon class="cls-1" points="280.47 400.31 320.29 360.47 280.47 360.47 280.47 400.31"/><polygon class="cls-1" points="1000.47 360.47 1000.47 360.11 1000.11 360.47 1000.47 360.47"/><polygon class="cls-1" points="160.47 400.34 200.32 360.47 160.47 360.47 160.47 400.34"/><polygon class="cls-1" points="1000.47 400.47 1000.47 400.12 1000.12 400.47 1000.47 400.47"/><polygon class="cls-3" points="920.47 400.14 960.12 360.47 920.47 360.47 920.47 400.14"/><polygon class="cls-1" points="960.47 400.13 1000.11 360.47 960.47 360.47 960.47 400.13"/><polygon class="cls-1" points="1000.47 0.02 1000.02 0.47 1000.47 0.47 1000.47 0.02"/><polygon class="cls-1" points="0.34 240.47 0.47 240.47 0.47 240.34 0.34 240.47"/><polygon class="cls-1" points="760.47 400.18 800.16 360.47 760.47 360.47 760.47 400.18"/><polygon class="cls-1" points="880.47 400.15 920.13 360.47 880.47 360.47 880.47 400.15"/><polygon class="cls-3" points="680.47 400.2 720.18 360.47 680.47 360.47 680.47 400.2"/><polygon class="cls-1" points="720.47 400.19 760.17 360.47 720.47 360.47 720.47 400.19"/><polygon class="cls-1" points="800.47 400.17 840.15 360.47 800.47 360.47 800.47 400.17"/><polygon class="cls-1" points="840.47 400.16 880.14 360.47 840.47 360.47 840.47 400.16"/><polygon class="cls-1" points="280.47 0 280 0.47 280.47 0.47 280.47 0"/><polygon class="cls-1" points="640.47 0.11 640.11 0.47 640.47 0.47 640.47 0.11"/><polygon class="cls-1" points="400.47 0 400 0.47 400.47 0.47 400.47 0"/><polygon class="cls-1" points="160.47 0.23 160.24 0.47 160.47 0.47 160.47 0.23"/><polygon class="cls-1" points="320.47 0 320 0.47 320.47 0.47 320.47 0"/><polygon class="cls-1" points="240.47 0.21 240.22 0.47 240.47 0.47 240.47 0.21"/><polygon class="cls-1" points="200.47 0.23 200.22 0.47 200.47 0.47 200.47 0.23"/><polygon class="cls-1" points="360.47 0 360 0.47 360.47 0.47 360.47 0"/><polygon class="cls-1" points="560.47 0.13 560.13 0.47 560.47 0.47 560.47 0.13"/><polygon class="cls-1" points="440.47 0 440 0.47 440.47 0.47 440.47 0"/><polygon class="cls-1" points="600.47 0.12 600.12 0.47 600.47 0.47 600.47 0.12"/><polygon class="cls-1" points="480.47 0 480 0.47 480.47 0.47 480.47 0"/><polygon class="cls-1" points="520.47 0 520 0.47 520.47 0.47 520.47 0"/><polygon class="cls-1" points="0.47 200.33 40.31 160.47 0.47 160.47 0.47 200.33"/><polygon class="cls-1" points="40 240.47 40.47 240.47 40.47 240 40 240.47"/><polygon class="cls-2" points="0.47 280.47 0.47 320 40 280.47 0.47 280.47"/><polygon class="cls-2" points="0.47 400 40 360.47 0.47 360.47 0.47 400"/><polygon class="cls-1" points="40.47 400 80 360.47 40.47 360.47 40.47 400"/><polygon class="cls-2" points="80.47 400 120 360.47 80.47 360.47 80.47 400"/><polygon class="cls-1" points="120.47 0.25 120.25 0.47 120.47 0.47 120.47 0.25"/><polygon class="cls-1" points="40.47 0.27 40.27 0.47 40.47 0.47 40.47 0.27"/><polygon class="cls-1" points="80.47 0.26 80.26 0.47 80.47 0.47 80.47 0.26"/><polygon class="cls-2" points="160.47 280 200 240.47 160.47 240.47 160.47 280"/><polygon class="cls-1" points="120.47 400 160 360.47 120.47 360.47 120.47 400"/><polygon class="cls-1" points="40.32 200.47 40.47 200.47 40.47 200.32 40.32 200.47"/><polygon class="cls-1" points="0.47 0.47 0.47 40.29 40.27 0.47 0.47 0.47"/><polygon class="cls-1" points="520.47 80.16 520.16 80.47 520.47 80.47 520.47 80.16"/><polygon class="cls-1" points="360.47 80 360 80.47 360.47 80.47 360.47 80"/><polygon class="cls-1" points="600.47 80.14 600.14 80.47 600.47 80.47 600.47 80.14"/><polygon class="cls-1" points="480.47 80.17 480.17 80.47 480.47 80.47 480.47 80.17"/><polygon class="cls-1" points="400.47 80 400 80.47 400.47 80.47 400.47 80"/><polygon class="cls-1" points="840.47 80.08 840.08 80.47 840.47 80.47 840.47 80.08"/><polygon class="cls-1" points="560.47 80.15 560.15 80.47 560.47 80.47 560.47 80.15"/><polygon class="cls-1" points="760.47 80.1 760.1 80.47 760.47 80.47 760.47 80.1"/><polygon class="cls-1" points="800.47 80.09 800.09 80.47 800.47 80.47 800.47 80.09"/><polygon class="cls-1" points="680.47 80.12 680.12 80.47 680.47 80.47 680.47 80.12"/><polygon class="cls-1" points="720.47 80.11 720.11 80.47 720.47 80.47 720.47 80.11"/><polygon class="cls-1" points="640.47 80.13 640.13 80.47 640.47 80.47 640.47 80.13"/><polygon class="cls-1" points="440.47 80 440 80.47 440.47 80.47 440.47 80"/><polygon class="cls-1" points="120.28 120.47 120.47 120.47 120.47 120.28 120.28 120.47"/><polygon class="cls-1" points="80.47 120.29 120.27 80.47 80.47 80.47 80.47 120.29"/><polygon class="cls-1" points="80.28 80.47 80.47 80.47 80.47 80.28 80.28 80.47"/><polygon class="cls-1" points="120 160.47 120.47 160.47 120.47 160 120 160.47"/><polygon class="cls-1" points="120 200.47 120.47 200.47 120.47 200 120 200.47"/><polygon class="cls-1" points="120.27 80.47 120.47 80.47 120.47 80.27 120.27 80.47"/><polygon class="cls-1" points="200.47 80 200 80.47 200.47 80.47 200.47 80"/><polygon class="cls-1" points="240.47 80 240 80.47 240.47 80.47 240.47 80"/><polygon class="cls-1" points="280.47 80 280 80.47 280.47 80.47 280.47 80"/><polygon class="cls-1" points="160.47 80.26 160.26 80.47 160.47 80.47 160.47 80.26"/><polygon class="cls-2" points="120.47 80.47 120.47 120.28 160.26 80.47 120.47 80.47"/><polygon class="cls-1" points="320.47 80 320 80.47 320.47 80.47 320.47 80"/><polygon class="cls-3" points="600.47 280.19 640.17 240.47 600.47 240.47 600.47 280.19"/><polygon class="cls-4" points="640.47 280.18 680.16 240.47 640.47 240.47 640.47 280.18"/><polygon class="cls-1" points="440.47 280.24 480.21 240.47 440.47 240.47 440.47 280.24"/><polygon class="cls-1" points="880.07 80.47 840.47 80.47 840.47 120.09 880.07 80.47"/><polygon class="cls-2" points="400.47 280.25 440.23 240.47 400.47 240.47 400.47 280.25"/><polygon class="cls-1" points="560.47 280.2 600.18 240.47 560.47 240.47 560.47 280.2"/><polygon class="cls-1" points="120 240.47 120.47 240.47 120.47 240 120 240.47"/><polygon class="cls-1" points="480.47 280.23 520.21 240.47 480.47 240.47 480.47 280.23"/><polygon class="cls-1" points="200.47 280 240 240.47 200.47 240.47 200.47 280"/><polygon class="cls-2" points="240.47 280 280 240.47 240.47 240.47 240.47 280"/><polygon class="cls-2" points="280.47 280.28 320.26 240.47 280.47 240.47 280.47 280.28"/><polygon class="cls-2" points="360.47 280.26 400.24 240.47 360.47 240.47 360.47 280.26"/><polygon class="cls-1" points="320.47 280.27 360.25 240.47 320.47 240.47 320.47 280.27"/><polygon class="cls-2" points="520.47 280.21 560.2 240.47 520.47 240.47 520.47 280.21"/><polygon class="cls-1" points="920.1 240.47 880.47 240.47 880.47 280.12 920.1 240.47"/><polygon class="cls-2" points="680.47 280.17 720.15 240.47 680.47 240.47 680.47 280.17"/><polygon class="cls-1" points="920.08 160.47 880.47 160.47 880.47 200.1 920.08 160.47"/><polygon class="cls-2" points="920.07 120.47 880.47 120.47 880.47 160.09 920.07 120.47"/><polygon class="cls-1" points="880.47 120.08 880.08 120.47 880.47 120.47 880.47 120.08"/><polygon class="cls-4" points="920.09 200.47 880.47 200.47 880.47 240.11 920.09 200.47"/><polygon class="cls-1" points="760.47 280.15 800.13 240.47 760.47 240.47 760.47 280.15"/><polygon class="cls-1" points="120.47 40.26 120.26 40.47 120.47 40.47 120.47 40.26"/><polygon class="cls-1" points="800.47 280.14 840.12 240.47 800.47 240.47 800.47 280.14"/><polygon class="cls-1" points="840.47 280.13 880.11 240.47 840.47 240.47 840.47 280.13"/><polygon class="cls-1" points="880.47 240.47 880.47 240.11 880.11 240.47 880.47 240.47"/><polygon class="cls-1" points="720.47 280.16 760.14 240.47 720.47 240.47 720.47 280.16"/><polygon class="cls-1" points="800.47 40.08 800.08 40.47 800.47 40.47 800.47 40.08"/><polygon class="cls-1" points="840.47 40.07 840.07 40.47 840.47 40.47 840.47 40.07"/><polygon class="cls-1" points="760.47 40.09 760.09 40.47 760.47 40.47 760.47 40.09"/><polygon class="cls-1" points="680.47 40.11 680.11 40.47 680.47 40.47 680.47 40.11"/><polygon class="cls-1" points="880.47 40.06 880.06 40.47 880.47 40.47 880.47 40.06"/><polygon class="cls-1" points="640.47 40.12 640.12 40.47 640.47 40.47 640.47 40.12"/><polygon class="cls-1" points="720.47 40.1 720.1 40.47 720.47 40.47 720.47 40.1"/><polygon class="cls-1" points="960.07 160.47 920.47 160.47 920.47 200.09 960.07 160.47"/><polygon class="cls-1" points="920.05 40.47 880.47 40.47 880.47 80.07 920.05 40.47"/><polygon class="cls-1" points="960.06 120.47 920.47 120.47 920.47 160.08 960.06 120.47"/><polygon class="cls-3" points="960.05 80.47 920.47 80.47 920.47 120.07 960.05 80.47"/><polygon class="cls-1" points="920.47 80.06 920.06 80.47 920.47 80.47 920.47 80.06"/><polygon class="cls-1" points="520.47 40.15 520.15 40.47 520.47 40.47 520.47 40.15"/><polygon class="cls-1" points="240.47 40 240 40.47 240.47 40.47 240.47 40"/><polygon class="cls-1" points="280.47 40 280 40.47 280.47 40.47 280.47 40"/><polygon class="cls-1" points="320.47 40 320 40.47 320.47 40.47 320.47 40"/><polygon class="cls-1" points="160.47 40.24 160.25 40.47 160.47 40.47 160.47 40.24"/><polygon class="cls-1" points="360.47 40 360 40.47 360.47 40.47 360.47 40"/><polygon class="cls-1" points="600.47 40.13 600.13 40.47 600.47 40.47 600.47 40.13"/><polygon class="cls-1" points="200.47 40.23 200.24 40.47 200.47 40.47 200.47 40.23"/><polygon class="cls-1" points="400.47 40 400 40.47 400.47 40.47 400.47 40"/><polygon class="cls-1" points="560.47 40.14 560.14 40.47 560.47 40.47 560.47 40.14"/><polygon class="cls-1" points="960.08 200.47 920.47 200.47 920.47 240.1 960.08 200.47"/><polygon class="cls-1" points="480.47 40 480 40.47 480.47 40.47 480.47 40"/><polygon class="cls-1" points="440.47 40 440 40.47 440.47 40.47 440.47 40"/><polygon class="cls-1" points="720.47 320.17 760.15 280.47 720.47 280.47 720.47 320.17"/><polygon class="cls-2" points="360.47 320.27 400.25 280.47 360.47 280.47 360.47 320.27"/><polygon class="cls-2" points="400.47 320.26 440.24 280.47 400.47 280.47 400.47 320.26"/><polygon class="cls-1" points="320.47 320.28 360.26 280.47 320.47 280.47 320.47 320.28"/><polygon class="cls-1" points="280.47 320.29 320.27 280.47 280.47 280.47 280.47 320.29"/><polygon class="cls-1" points="520.47 320.23 560.21 280.47 520.47 280.47 520.47 320.23"/><polygon class="cls-1" points="440.47 320.25 480.23 280.47 440.47 280.47 440.47 320.25"/><polygon class="cls-1" points="960.09 240.47 920.47 240.47 920.47 280.11 960.09 240.47"/><polygon class="cls-1" points="80.47 320 120 280.47 80.47 280.47 80.47 320"/><polygon class="cls-2" points="120.47 320 160 280.47 120.47 280.47 120.47 320"/><polygon class="cls-1" points="240.47 320.3 280.28 280.47 240.47 280.47 240.47 320.3"/><polygon class="cls-1" points="160.47 320 200 280.47 160.47 280.47 160.47 320"/><polygon class="cls-2" points="200.47 320 240 280.47 200.47 280.47 200.47 320"/><polygon class="cls-2" points="480.47 320.24 520.22 280.47 480.47 280.47 480.47 320.24"/><polygon class="cls-1" points="560.47 320.21 600.2 280.47 560.47 280.47 560.47 320.21"/><polygon class="cls-1" points="880.47 320.13 920.11 280.47 880.47 280.47 880.47 320.13"/><polygon class="cls-1" points="800.47 320.15 840.13 280.47 800.47 280.47 800.47 320.15"/><polygon class="cls-1" points="920.47 280.47 920.47 280.11 920.11 280.47 920.47 280.47"/><polygon class="cls-1" points="960.1 280.47 920.47 280.47 920.47 320.12 960.1 280.47"/><polygon class="cls-1" points="840.47 320.14 880.12 280.47 840.47 280.47 840.47 320.14"/><polygon class="cls-2" points="640.47 320.19 680.17 280.47 640.47 280.47 640.47 320.19"/><polygon class="cls-1" points="600.47 320.2 640.18 280.47 600.47 280.47 600.47 320.2"/><polygon class="cls-1" points="120 280.47 120.47 280.47 120.47 280 120 280.47"/><polygon class="cls-2" points="680.47 320.18 720.16 280.47 680.47 280.47 680.47 320.18"/><polygon class="cls-1" points="760.47 320.16 800.14 280.47 760.47 280.47 760.47 320.16"/><polygon class="cls-4" points="560.47 160.47 560.17 160.47 520.47 200.19 520.47 200.47 560.18 200.47 560.47 200.18 560.47 160.47"/><polygon class="cls-1" points="640.21 360.47 640.47 360.47 640.47 360.2 640.21 360.47"/><polygon class="cls-1" points="640.47 320.47 640.2 320.47 600.47 360.21 600.47 360.47 640.21 360.47 640.47 360.2 640.47 320.47"/><polygon class="cls-5" points="600.47 320.47 600.21 320.47 560.47 360.23 560.47 360.47 600.22 360.47 600.47 360.21 600.47 320.47"/><polygon class="cls-1" points="600.22 360.47 600.47 360.47 600.47 360.21 600.22 360.47"/><polygon class="cls-1" points="560.23 360.47 560.47 360.47 560.47 360.23 560.23 360.47"/><polygon class="cls-2" points="560.47 320.47 560.22 320.47 520.47 360.24 520.47 360.47 560.23 360.47 560.47 360.23 560.47 320.47"/><polygon class="cls-1" points="680.2 360.47 680.47 360.47 680.47 360.19 680.2 360.47"/><polygon class="cls-1" points="720.18 360.47 720.47 360.47 720.47 360.18 720.18 360.47"/><polygon class="cls-5" points="760.47 320.47 760.16 320.47 720.47 360.18 720.47 360.47 760.17 360.47 760.47 360.17 760.47 320.47"/><polygon class="cls-1" points="520.24 360.47 520.47 360.47 520.47 360.24 520.24 360.47"/><polygon class="cls-1" points="720.47 320.47 720.17 320.47 680.47 360.19 680.47 360.47 720.18 360.47 720.47 360.18 720.47 320.47"/><polygon class="cls-5" points="680.47 320.47 680.18 320.47 640.47 360.2 640.47 360.47 680.2 360.47 680.47 360.19 680.47 320.47"/><polygon class="cls-5" points="320.47 320.47 320.28 320.47 280.47 360.3 280.47 360.47 320.29 360.47 320.47 360.29 320.47 320.47"/><polygon class="cls-1" points="320.29 360.47 320.47 360.47 320.47 360.29 320.29 360.47"/><polygon class="cls-2" points="360.47 320.47 360.27 320.47 320.47 360.29 320.47 360.47 360.28 360.47 360.47 360.28 360.47 320.47"/><polygon class="cls-1" points="360.28 360.47 360.47 360.47 360.47 360.28 360.28 360.47"/><polygon class="cls-1" points="400.47 320.47 400.26 320.47 360.47 360.28 360.47 360.47 400.27 360.47 400.47 360.27 400.47 320.47"/><polygon class="cls-4" points="280.47 320.47 280.29 320.47 240.47 360.31 240.47 360.47 280.3 360.47 280.47 360.3 280.47 320.47"/><polygon class="cls-1" points="280.3 360.47 280.47 360.47 280.47 360.3 280.3 360.47"/><polygon class="cls-1" points="480.25 360.47 480.47 360.47 480.47 360.25 480.25 360.47"/><polygon class="cls-1" points="400.27 360.47 400.47 360.47 400.47 360.27 400.27 360.47"/><polygon class="cls-2" points="520.47 320.47 520.23 320.47 480.47 360.25 480.47 360.47 520.24 360.47 520.47 360.24 520.47 320.47"/><polygon class="cls-2" points="480.47 320.47 480.24 320.47 440.47 360.25 440.47 360.47 480.25 360.47 480.47 360.25 480.47 320.47"/><polygon class="cls-1" points="440.47 320.47 440.25 320.47 400.47 360.27 400.47 360.47 440.26 360.47 440.47 360.25 440.47 320.47"/><polygon class="cls-1" points="440.26 360.47 440.47 360.47 440.47 360.25 440.26 360.47"/><polygon class="cls-1" points="760.17 360.47 760.47 360.47 760.47 360.17 760.17 360.47"/><polygon class="cls-3" points="960.47 240.09 960.47 240.47 1000.08 240.47 1000.47 240.08 1000.47 200.47 1000.07 200.47 960.47 240.09"/><polygon class="cls-1" points="1000.47 280.47 1000.47 280.09 1000.09 280.47 1000.47 280.47"/><polygon class="cls-2" points="960.47 200.08 960.47 200.47 1000.07 200.47 1000.47 200.07 1000.47 160.47 1000.06 160.47 960.47 200.08"/><polygon class="cls-1" points="1000.47 240.47 1000.47 240.08 1000.08 240.47 1000.47 240.47"/><polygon class="cls-1" points="960.47 280.1 960.47 280.47 1000.09 280.47 1000.47 280.09 1000.47 240.47 1000.08 240.47 960.47 280.1"/><polygon class="cls-1" points="1000.47 160.47 1000.47 160.06 1000.06 160.47 1000.47 160.47"/><polygon class="cls-1" points="1000.47 200.47 1000.47 200.07 1000.07 200.47 1000.47 200.47"/><polygon class="cls-1" points="1000.47 80.47 1000.47 80.04 1000.04 80.47 1000.47 80.47"/><polygon class="cls-2" points="960.47 80.05 960.47 80.47 1000.04 80.47 1000.47 80.04 1000.47 40.47 1000.03 40.47 960.47 80.05"/><polygon class="cls-1" points="1000.47 120.47 1000.47 120.05 1000.05 120.47 1000.47 120.47"/><polygon class="cls-1" points="960.47 120.06 960.47 120.47 1000.05 120.47 1000.47 120.05 1000.47 80.47 1000.04 80.47 960.47 120.06"/><polygon class="cls-3" points="960.47 160.07 960.47 160.47 1000.06 160.47 1000.47 160.06 1000.47 120.47 1000.05 120.47 960.47 160.07"/><polygon class="cls-2" points="960.47 320.11 960.47 320.47 1000.1 320.47 1000.47 320.1 1000.47 280.47 1000.09 280.47 960.47 320.11"/><polygon class="cls-2" points="920.47 320.47 920.12 320.47 880.47 360.14 880.47 360.47 920.13 360.47 920.47 360.13 920.47 320.47"/><polygon class="cls-3" points="880.47 320.47 880.13 320.47 840.47 360.15 840.47 360.47 880.14 360.47 880.47 360.14 880.47 320.47"/><polygon class="cls-4" points="800.47 320.47 800.15 320.47 760.47 360.17 760.47 360.47 800.16 360.47 800.47 360.16 800.47 320.47"/><polygon class="cls-5" points="320.47 120.47 360 120.47 360.47 120 360.47 80.47 360 80.47 320.47 120 320.47 120.47"/><polygon class="cls-1" points="800.16 360.47 800.47 360.47 800.47 360.16 800.16 360.47"/><polygon class="cls-3" points="840.47 320.47 840.14 320.47 800.47 360.16 800.47 360.47 840.15 360.47 840.47 360.15 840.47 320.47"/><polygon class="cls-1" points="880.14 360.47 880.47 360.47 880.47 360.14 880.14 360.47"/><polygon class="cls-1" points="960.47 360.12 960.47 360.47 1000.11 360.47 1000.47 360.11 1000.47 320.47 1000.1 320.47 960.47 360.12"/><polygon class="cls-3" points="1000.47 320.47 1000.47 320.1 1000.1 320.47 1000.47 320.47"/><polygon class="cls-2" points="960.47 320.47 960.11 320.47 920.47 360.13 920.47 360.47 960.12 360.47 960.47 360.12 960.47 320.47"/><polygon class="cls-1" points="920.13 360.47 920.47 360.47 920.47 360.13 920.13 360.47"/><polygon class="cls-1" points="960.12 360.47 960.47 360.47 960.47 360.12 960.12 360.47"/><polygon class="cls-4" points="160.47 320.47 160 320.47 120.47 360 120.47 360.47 160 360.47 160.47 360 160.47 320.47"/><polygon class="cls-1" points="80.47 40.47 120.26 40.47 120.47 40.26 120.47 0.47 120.25 0.47 80.47 40.27 80.47 40.47"/><polygon class="cls-1" points="160.24 0.47 120.47 0.47 120.47 40.26 160.24 0.47"/><polygon class="cls-1" points="240.31 360.47 240.47 360.47 240.47 360.31 240.31 360.47"/><polygon class="cls-4" points="120.47 40.47 160.25 40.47 160.47 40.24 160.47 0.47 160.24 0.47 120.47 40.26 120.47 40.47"/><polygon class="cls-1" points="40.47 120.3 40.47 80.47 40.29 80.47 0.47 120.31 0.47 120.47 40.3 120.47 40.47 120.3"/><polygon class="cls-2" points="40.47 40.47 80.27 40.47 80.47 40.27 80.47 0.47 80.26 0.47 40.47 40.28 40.47 40.47"/><polygon class="cls-1" points="0.47 80.47 0.47 120.31 40.29 80.47 0.47 80.47"/><polygon class="cls-1" points="160.47 40.47 200.24 40.47 200.47 40.23 200.47 0.47 200.22 0.47 160.47 40.24 160.47 40.47"/><polygon class="cls-2" points="40.47 80.29 40.47 40.47 40.28 40.47 0.47 80.3 0.47 80.47 40.29 80.47 40.47 80.29"/><polygon class="cls-5" points="80.26 0.47 40.47 0.47 40.47 40.28 80.26 0.47"/><polygon class="cls-3" points="0.47 40.47 0.47 80.3 40.28 40.47 0.47 40.47"/><polygon class="cls-3" points="40.47 40.28 40.47 0.47 40.27 0.47 0.47 40.29 0.47 40.47 40.28 40.47 40.47 40.28"/><polygon class="cls-3" points="200.22 0.47 160.47 0.47 160.47 40.24 200.22 0.47"/><polygon class="cls-4" points="400 0.47 360.47 0.47 360.47 40 400 0.47"/><polygon class="cls-5" points="360 0.47 320.47 0.47 320.47 40 360 0.47"/><polygon class="cls-1" points="320.47 40.47 360 40.47 360.47 40 360.47 0.47 360 0.47 320.47 40 320.47 40.47"/><polygon class="cls-1" points="360.47 40.47 400 40.47 400.47 40 400.47 0.47 400 0.47 360.47 40 360.47 40.47"/><polygon class="cls-3" points="440 0.47 400.47 0.47 400.47 40 440 0.47"/><polygon class="cls-1" points="400.47 40.47 440 40.47 440.47 40 440.47 0.47 440 0.47 400.47 40 400.47 40.47"/><polygon class="cls-1" points="240.47 40.47 280 40.47 280.47 40 280.47 0.47 280 0.47 240.47 40 240.47 40.47"/><polygon class="cls-1" points="280 0.47 240.47 0.47 240.47 40 280 0.47"/><polygon class="cls-5" points="200.47 40.47 240 40.47 240.47 40 240.47 0.47 240.22 0.47 200.47 40.23 200.47 40.47"/><polygon class="cls-1" points="280.47 40.47 320 40.47 320.47 40 320.47 0.47 320 0.47 280.47 40 280.47 40.47"/><polygon class="cls-3" points="320 0.47 280.47 0.47 280.47 40 320 0.47"/><polygon class="cls-1" points="240.22 0.47 200.47 0.47 200.47 40.23 240.22 0.47"/><polygon class="cls-5" points="120.25 0.47 80.47 0.47 80.47 40.27 120.25 0.47"/><polygon class="cls-1" points="80 360.47 80.47 360.47 80.47 360 80 360.47"/><polygon class="cls-3" points="80.47 320.47 80 320.47 40.47 360 40.47 360.47 80 360.47 80.47 360 80.47 320.47"/><polygon class="cls-1" points="120.47 320.47 120 320.47 80.47 360 80.47 360.47 120 360.47 120.47 360 120.47 320.47"/><polygon class="cls-1" points="0.47 320.47 0.47 360 40 320.47 0.47 320.47"/><polygon class="cls-1" points="0.47 120.47 0.47 160.32 40.3 120.47 0.47 120.47"/><polygon class="cls-2" points="40.47 320.47 40 320.47 0.47 360 0.47 360.47 40 360.47 40.47 360 40.47 320.47"/><polygon class="cls-1" points="120 360.47 120.47 360.47 120.47 360 120 360.47"/><polygon class="cls-1" points="1000.47 40.47 1000.47 40.03 1000.03 40.47 1000.47 40.47"/><polygon class="cls-1" points="200.32 360.47 200.47 360.47 200.47 360.32 200.32 360.47"/><polygon class="cls-3" points="240.47 320.47 240.3 320.47 200.47 360.32 200.47 360.47 240.31 360.47 240.47 360.31 240.47 320.47"/><polygon class="cls-4" points="200.47 320.47 200 320.47 160.47 360 160.47 360.47 200.32 360.47 200.47 360.32 200.47 320.47"/><polygon class="cls-1" points="160 360.47 160.47 360.47 160.47 360 160 360.47"/><polygon class="cls-1" points="40 360.47 40.47 360.47 40.47 360 40 360.47"/><polygon class="cls-1" points="80.47 200 80.47 160.47 80.3 160.47 40.47 200.32 40.47 200.47 80 200.47 80.47 200"/><polygon class="cls-5" points="40.47 160.47 40.47 200.32 80.3 160.47 40.47 160.47"/><polygon class="cls-5" points="80.47 160.3 80.47 120.47 80.29 120.47 40.47 160.31 40.47 160.47 80.3 160.47 80.47 160.3"/><polygon class="cls-1" points="40.31 160.47 40.47 160.47 40.47 160.31 40.31 160.47"/><polygon class="cls-5" points="40.47 120.47 40.3 120.47 0.47 160.32 0.47 160.47 40.31 160.47 40.47 160.31 40.47 120.47"/><polygon class="cls-1" points="40.47 200.47 40.47 240 80 200.47 40.47 200.47"/><polygon class="cls-2" points="80 280.47 80.47 280 80.47 240.47 80 240.47 40.47 280 40.47 280.47 80 280.47"/><polygon class="cls-1" points="40.47 280 40 280.47 40.47 280.47 40.47 280"/><polygon class="cls-2" points="40.47 320 40.47 280.47 40 280.47 0.47 320 0.47 320.47 40 320.47 40.47 320"/><polygon class="cls-1" points="40.47 240.47 40.47 280 80 240.47 40.47 240.47"/><polygon class="cls-2" points="80.47 240 80.47 200.47 80 200.47 40.47 240 40.47 240.47 80 240.47 80.47 240"/><polygon class="cls-3" points="320.47 360.47 320.29 360.47 280.47 400.31 280.47 400.47 320.3 400.47 320.47 400.3 320.47 360.47"/><polygon class="cls-1" points="360.29 400.47 360.47 400.47 360.47 400.29 360.29 400.47"/><polygon class="cls-3" points="400.47 360.47 400.27 360.47 360.47 400.29 360.47 400.47 400.28 400.47 400.47 400.28 400.47 360.47"/><polygon class="cls-4" points="360.47 360.47 360.28 360.47 320.47 400.3 320.47 400.47 360.29 400.47 360.47 400.29 360.47 360.47"/><polygon class="cls-1" points="320.3 400.47 320.47 400.47 320.47 400.3 320.3 400.47"/><polygon class="cls-1" points="400.28 400.47 400.47 400.47 400.47 400.28 400.28 400.47"/><polygon class="cls-4" points="480 0.47 440.47 0.47 440.47 40 480 0.47"/><polygon class="cls-1" points="440.27 400.47 440.47 400.47 440.47 400.27 440.27 400.47"/><polygon class="cls-3" points="520.47 360.47 520.24 360.47 480.47 400.25 480.47 400.47 520.25 400.47 520.47 400.25 520.47 360.47"/><polygon class="cls-1" points="480.26 400.47 480.47 400.47 480.47 400.25 480.26 400.47"/><polygon class="cls-1" points="520.25 400.47 520.47 400.47 520.47 400.25 520.25 400.47"/><polygon class="cls-1" points="440.47 360.47 440.26 360.47 400.47 400.28 400.47 400.47 440.27 400.47 440.47 400.27 440.47 360.47"/><polygon class="cls-4" points="480.47 360.47 480.25 360.47 440.47 400.27 440.47 400.47 480.26 400.47 480.47 400.25 480.47 360.47"/><polygon class="cls-1" points="280.31 400.47 280.47 400.47 280.47 400.31 280.31 400.47"/><polygon class="cls-3" points="120.47 360.47 120 360.47 80.47 400 80.47 400.47 120 400.47 120.47 400 120.47 360.47"/><polygon class="cls-1" points="160.47 360.47 160 360.47 120.47 400 120.47 400.47 160.34 400.47 160.47 400.34 160.47 360.47"/><polygon class="cls-1" points="80 400.47 80.47 400.47 80.47 400 80 400.47"/><polygon class="cls-1" points="120 400.47 120.47 400.47 120.47 400 120 400.47"/><polygon class="cls-1" points="40 400.47 40.47 400.47 40.47 400 40 400.47"/><polygon class="cls-5" points="80.47 360.47 80 360.47 40.47 400 40.47 400.47 80 400.47 80.47 400 80.47 360.47"/><polygon class="cls-1" points="160.34 400.47 160.47 400.47 160.47 400.34 160.34 400.47"/><polygon class="cls-1" points="240.32 400.47 240.47 400.47 240.47 400.32 240.32 400.47"/><polygon class="cls-1" points="280.47 360.47 280.3 360.47 240.47 400.32 240.47 400.47 280.31 400.47 280.47 400.31 280.47 360.47"/><polygon class="cls-5" points="240.47 360.47 240.31 360.47 200.47 400.33 200.47 400.47 240.32 400.47 240.47 400.32 240.47 360.47"/><polygon class="cls-5" points="200.47 360.47 200.32 360.47 160.47 400.34 160.47 400.47 200.33 400.47 200.47 400.33 200.47 360.47"/><polygon class="cls-1" points="200.33 400.47 200.47 400.47 200.47 400.33 200.33 400.47"/><polygon class="cls-2" points="560.47 360.47 560.23 360.47 520.47 400.25 520.47 400.47 560.24 400.47 560.47 400.24 560.47 360.47"/><polygon class="cls-1" points="840.16 400.47 840.47 400.47 840.47 400.16 840.16 400.47"/><polygon class="cls-3" points="880.47 360.47 880.14 360.47 840.47 400.16 840.47 400.47 880.15 400.47 880.47 400.15 880.47 360.47"/><polygon class="cls-1" points="880.15 400.47 880.47 400.47 880.47 400.15 880.15 400.47"/><polygon class="cls-1" points="920.47 360.47 920.13 360.47 880.47 400.15 880.47 400.47 920.14 400.47 920.47 400.14 920.47 360.47"/><polygon class="cls-1" points="800.17 400.47 800.47 400.47 800.47 400.17 800.17 400.47"/><polygon class="cls-1" points="40.47 360.47 40 360.47 0.47 400 0.47 400.47 40 400.47 40.47 400 40.47 360.47"/><polygon class="cls-1" points="920.14 400.47 920.47 400.47 920.47 400.14 920.14 400.47"/><polygon class="cls-5" points="1000.47 400.12 1000.47 360.47 1000.11 360.47 960.47 400.13 960.47 400.47 1000.12 400.47 1000.47 400.12"/><polygon class="cls-1" points="960.13 400.47 960.47 400.47 960.47 400.13 960.13 400.47"/><polygon class="cls-3" points="800.47 360.47 800.16 360.47 760.47 400.18 760.47 400.47 800.17 400.47 800.47 400.17 800.47 360.47"/><polygon class="cls-4" points="960.47 360.47 960.12 360.47 920.47 400.14 920.47 400.47 960.13 400.47 960.47 400.13 960.47 360.47"/><polygon class="cls-5" points="840.47 360.47 840.15 360.47 800.47 400.17 800.47 400.47 840.16 400.47 840.47 400.16 840.47 360.47"/><polygon class="cls-1" points="600.23 400.47 600.47 400.47 600.47 400.23 600.23 400.47"/><polygon class="cls-1" points="640.47 360.47 640.21 360.47 600.47 400.23 600.47 400.47 640.22 400.47 640.47 400.21 640.47 360.47"/><polygon class="cls-1" points="640.22 400.47 640.47 400.47 640.47 400.21 640.22 400.47"/><polygon class="cls-1" points="560.24 400.47 560.47 400.47 560.47 400.24 560.24 400.47"/><polygon class="cls-5" points="600.47 360.47 600.22 360.47 560.47 400.24 560.47 400.47 600.23 400.47 600.47 400.23 600.47 360.47"/><polygon class="cls-1" points="760.47 360.47 760.17 360.47 720.47 400.19 720.47 400.47 760.18 400.47 760.47 400.18 760.47 360.47"/><polygon class="cls-1" points="720.2 400.47 720.47 400.47 720.47 400.19 720.2 400.47"/><polygon class="cls-1" points="760.18 400.47 760.47 400.47 760.47 400.18 760.18 400.47"/><polygon class="cls-2" points="720.47 360.47 720.18 360.47 680.47 400.2 680.47 400.47 720.2 400.47 720.47 400.19 720.47 360.47"/><polygon class="cls-1" points="680.21 400.47 680.47 400.47 680.47 400.2 680.21 400.47"/><polygon class="cls-4" points="680.47 360.47 680.2 360.47 640.47 400.21 640.47 400.47 680.21 400.47 680.47 400.2 680.47 360.47"/><polygon class="cls-1" points="960.47 40.47 1000.03 40.47 1000.47 40.03 1000.47 0.47 1000.02 0.47 960.47 40.04 960.47 40.47"/><polygon class="cls-1" points="960.47 0.47 960.47 0.03 960.03 0.47 960.47 0.47"/><polygon class="cls-2" points="1000.02 0.47 960.47 0.47 960.47 40.04 1000.02 0.47"/><polygon class="cls-5" points="920.47 40.05 920.47 40.47 960.04 40.47 960.47 40.04 960.47 0.47 960.03 0.47 920.47 40.05"/><polygon class="cls-1" points="0 400.47 0.47 400.47 0.47 400 0 400.47"/><polygon class="cls-1" points="0.47 280 0 280.47 0.47 280.47 0.47 280"/><polygon class="cls-1" points="0.47 240.47 0.47 280 40 240.47 0.47 240.47"/><polygon class="cls-3" points="40 280.47 40.47 280 40.47 240.47 40 240.47 0.47 280 0.47 280.47 40 280.47"/><polygon class="cls-1" points="40.47 240 40.47 200.47 40.32 200.47 0.47 240.34 0.47 240.47 40 240.47 40.47 240"/><polygon class="cls-1" points="0.47 200.47 0.47 240.34 40.32 200.47 0.47 200.47"/><polygon class="cls-2" points="40.47 200.32 40.47 160.47 40.31 160.47 0.47 200.33 0.47 200.47 40.32 200.47 40.47 200.32"/><polygon class="cls-1" points="0.33 200.47 0.47 200.47 0.47 200.33 0.33 200.47"/><polygon class="cls-1" points="0.47 360 0 360.47 0.47 360.47 0.47 360"/><polygon class="cls-1" points="0.47 320 0 320.47 0.47 320.47 0.47 320"/><polygon class="cls-1" points="0.47 40.29 0.29 40.47 0.47 40.47 0.47 40.29"/><polygon class="cls-1" points="0.47 0.28 0.28 0.47 0.47 0.47 0.47 0.28"/><polygon class="cls-1" points="0.47 160.32 0.32 160.47 0.47 160.47 0.47 160.32"/><polygon class="cls-5" points="0.47 120.31 0.31 120.47 0.47 120.47 0.47 120.31"/><polygon class="cls-1" points="0.47 80.3 0.3 80.47 0.47 80.47 0.47 80.3"/><polygon class="cls-1" points="840.15 360.47 840.47 360.47 840.47 360.15 840.15 360.47"/><polygon class="cls-1" points="800.47 80.47 840.08 80.47 840.47 80.08 840.47 40.47 840.07 40.47 800.47 80.09 800.47 80.47"/><polygon class="cls-1" points="680.47 80.47 720.11 80.47 720.47 80.11 720.47 40.47 720.1 40.47 680.47 80.12 680.47 80.47"/><polygon class="cls-1" points="880.47 80.47 880.47 80.07 880.07 80.47 880.47 80.47"/><polygon class="cls-2" points="840.47 80.47 880.07 80.47 880.47 80.07 880.47 40.47 880.06 40.47 840.47 80.08 840.47 80.47"/><polygon class="cls-5" points="840.47 120.09 840.47 120.47 880.08 120.47 880.47 120.08 880.47 80.47 880.07 80.47 840.47 120.09"/><polygon class="cls-1" points="880.47 120.47 920.07 120.47 920.47 120.07 920.47 80.47 920.06 80.47 880.47 120.08 880.47 120.47"/><polygon class="cls-2" points="920.06 80.47 880.47 80.47 880.47 120.08 920.06 80.47"/><polygon class="cls-1" points="760.09 40.47 720.47 40.47 720.47 80.11 760.09 40.47"/><polygon class="cls-1" points="800.14 280.47 800.47 280.47 800.47 280.14 800.14 280.47"/><polygon class="cls-4" points="800.08 40.47 760.47 40.47 760.47 80.1 800.08 40.47"/><polygon class="cls-1" points="760.47 80.47 800.09 80.47 800.47 80.09 800.47 40.47 800.08 40.47 760.47 80.1 760.47 80.47"/><polygon class="cls-2" points="840.07 40.47 800.47 40.47 800.47 80.09 840.07 40.47"/><polygon class="cls-4" points="880.06 40.47 840.47 40.47 840.47 80.08 880.06 40.47"/><polygon class="cls-1" points="880.12 280.47 880.47 280.47 880.47 280.12 880.12 280.47"/><polygon class="cls-1" points="920.47 240.47 920.47 240.1 920.1 240.47 920.47 240.47"/><polygon class="cls-2" points="880.47 280.12 880.47 280.47 920.11 280.47 920.47 280.11 920.47 240.47 920.1 240.47 880.47 280.12"/><polygon class="cls-2" points="880.47 240.47 880.11 240.47 840.47 280.13 840.47 280.47 880.12 280.47 880.47 280.12 880.47 240.47"/><polygon class="cls-5" points="840.47 240.47 840.12 240.47 800.47 280.14 800.47 280.47 840.13 280.47 840.47 280.13 840.47 240.47"/><polygon class="cls-1" points="920.47 120.47 920.47 120.07 920.07 120.47 920.47 120.47"/><polygon class="cls-1" points="840.13 280.47 840.47 280.47 840.47 280.13 840.13 280.47"/><polygon class="cls-5" points="880.47 160.09 880.47 160.47 920.08 160.47 920.47 160.08 920.47 120.47 920.07 120.47 880.47 160.09"/><polygon class="cls-1" points="920.47 160.47 920.47 160.08 920.08 160.47 920.47 160.47"/><polygon class="cls-5" points="880.47 240.11 880.47 240.47 920.1 240.47 920.47 240.1 920.47 200.47 920.09 200.47 880.47 240.11"/><polygon class="cls-2" points="880.47 200.1 880.47 200.47 920.09 200.47 920.47 200.09 920.47 160.47 920.08 160.47 880.47 200.1"/><polygon class="cls-1" points="920.47 200.47 920.47 200.09 920.09 200.47 920.47 200.47"/><polygon class="cls-2" points="720.47 80.47 760.1 80.47 760.47 80.1 760.47 40.47 760.09 40.47 720.47 80.11 720.47 80.47"/><polygon class="cls-2" points="280.47 80.47 320 80.47 320.47 80 320.47 40.47 320 40.47 280.47 80 280.47 80.47"/><polygon class="cls-1" points="320.47 80.47 360 80.47 360.47 80 360.47 40.47 360 40.47 320.47 80 320.47 80.47"/><polygon class="cls-4" points="360 40.47 320.47 40.47 320.47 80 360 40.47"/><polygon class="cls-3" points="400 40.47 360.47 40.47 360.47 80 400 40.47"/><polygon class="cls-1" points="360.47 80.47 400 80.47 400.47 80 400.47 40.47 400 40.47 360.47 80 360.47 80.47"/><polygon class="cls-2" points="440 40.47 400.47 40.47 400.47 80 440 40.47"/><polygon class="cls-1" points="240.47 80.47 280 80.47 280.47 80 280.47 40.47 280 40.47 240.47 80 240.47 80.47"/><polygon class="cls-4" points="320 40.47 280.47 40.47 280.47 80 320 40.47"/><polygon class="cls-1" points="200.47 80.47 240 80.47 240.47 80 240.47 40.47 240 40.47 200.47 80 200.47 80.47"/><polygon class="cls-3" points="240 40.47 200.47 40.47 200.47 80 240 40.47"/><polygon class="cls-1" points="280 40.47 240.47 40.47 240.47 80 280 40.47"/><polygon class="cls-2" points="400.47 80.47 440 80.47 440.47 80 440.47 40.47 440 40.47 400.47 80 400.47 80.47"/><polygon class="cls-1" points="600.47 80.47 640.13 80.47 640.47 80.13 640.47 40.47 640.12 40.47 600.47 80.14 600.47 80.47"/><polygon class="cls-1" points="600.13 40.47 560.47 40.47 560.47 80.15 600.13 40.47"/><polygon class="cls-5" points="720.1 40.47 680.47 40.47 680.47 80.12 720.1 40.47"/><polygon class="cls-4" points="560.47 80.47 600.14 80.47 600.47 80.14 600.47 40.47 600.13 40.47 560.47 80.15 560.47 80.47"/><polygon class="cls-4" points="640.12 40.47 600.47 40.47 600.47 80.14 640.12 40.47"/><polygon class="cls-1" points="480 40.47 440.47 40.47 440.47 80 480 40.47"/><polygon class="cls-1" points="680.11 40.47 640.47 40.47 640.47 80.13 680.11 40.47"/><polygon class="cls-1" points="640.47 80.47 680.12 80.47 680.47 80.12 680.47 40.47 680.11 40.47 640.47 80.13 640.47 80.47"/><polygon class="cls-1" points="520.15 40.47 480.47 40.47 480.47 80.17 520.15 40.47"/><polygon class="cls-4" points="440.47 80.47 480.17 80.47 480.47 80.17 480.47 40.47 480 40.47 440.47 80 440.47 80.47"/><polygon class="cls-2" points="480.47 80.47 520.16 80.47 520.47 80.16 520.47 40.47 520.15 40.47 480.47 80.17 480.47 80.47"/><polygon class="cls-4" points="520.47 80.47 560.15 80.47 560.47 80.15 560.47 40.47 560.14 40.47 520.47 80.16 520.47 80.47"/><polygon class="cls-3" points="560.14 40.47 520.47 40.47 520.47 80.16 560.14 40.47"/><polygon class="cls-1" points="200.47 120.47 240 120.47 240.47 120 240.47 80.47 240 80.47 200.47 120 200.47 120.47"/><polygon class="cls-2" points="800.47 240.47 800.13 240.47 760.47 280.15 760.47 280.47 800.14 280.47 800.47 280.14 800.47 240.47"/><polygon class="cls-1" points="120.47 240.47 120.47 280 160 240.47 120.47 240.47"/><polygon class="cls-1" points="160.47 240.47 160 240.47 120.47 280 120.47 280.47 160 280.47 160.47 280 160.47 240.47"/><polygon class="cls-1" points="160.47 200 160.47 160.47 160 160.47 120.47 200 120.47 200.47 160 200.47 160.47 200"/><polygon class="cls-1" points="160 280.47 160.47 280.47 160.47 280 160 280.47"/><polygon class="cls-1" points="120.47 200.47 120.47 240 160 200.47 120.47 200.47"/><polygon class="cls-1" points="200 280.47 200.47 280.47 200.47 280 200 280.47"/><polygon class="cls-1" points="240 280.47 240.47 280.47 240.47 280 240 280.47"/><polygon class="cls-2" points="280.47 240.47 280 240.47 240.47 280 240.47 280.47 280.28 280.47 280.47 280.28 280.47 240.47"/><polygon class="cls-1" points="120.47 160.47 120.47 200 160 160.47 120.47 160.47"/><polygon class="cls-1" points="240.47 240.47 240 240.47 200.47 280 200.47 280.47 240 280.47 240.47 280 240.47 240.47"/><polygon class="cls-1" points="200.47 240.47 200 240.47 160.47 280 160.47 280.47 200 280.47 200.47 280 200.47 240.47"/><polygon class="cls-2" points="240 80.47 200.47 80.47 200.47 120 240 80.47"/><polygon class="cls-1" points="240.47 120.47 280 120.47 280.47 120 280.47 80.47 280 80.47 240.47 120 240.47 120.47"/><polygon class="cls-1" points="160.47 80.47 200 80.47 200.47 80 200.47 40.47 200.24 40.47 160.47 80.26 160.47 80.47"/><polygon class="cls-4" points="280 80.47 240.47 80.47 240.47 120 280 80.47"/><polygon class="cls-3" points="320 80.47 280.47 80.47 280.47 120 320 80.47"/><polygon class="cls-1" points="360 80.47 320.47 80.47 320.47 120 360 80.47"/><polygon class="cls-5" points="160.47 160 160.47 120.47 160 120.47 120.47 160 120.47 160.47 160 160.47 160.47 160"/><polygon class="cls-2" points="280.47 120.47 320 120.47 320.47 120 320.47 80.47 320 80.47 280.47 120 280.47 120.47"/><polygon class="cls-1" points="280.28 280.47 280.47 280.47 280.47 280.28 280.28 280.47"/><polygon class="cls-1" points="120.47 120.47 120.47 160 160 120.47 120.47 120.47"/><polygon class="cls-3" points="160.47 120 160.47 80.47 160.26 80.47 120.47 120.28 120.47 120.47 160 120.47 160.47 120"/><polygon class="cls-1" points="200 80.47 160.47 80.47 160.47 120 200 80.47"/><polygon class="cls-1" points="440.47 40.47 480 40.47 480.47 40 480.47 0.47 480 0.47 440.47 40 440.47 40.47"/><polygon class="cls-3" points="160.47 240 160.47 200.47 160 200.47 120.47 240 120.47 240.47 160 240.47 160.47 240"/><polygon class="cls-2" points="560.47 240.47 560.2 240.47 520.47 280.21 520.47 280.47 560.21 280.47 560.47 280.2 560.47 240.47"/><polygon class="cls-1" points="680.47 240.47 680.16 240.47 640.47 280.18 640.47 280.47 680.17 280.47 680.47 280.17 680.47 240.47"/><polygon class="cls-1" points="600.2 280.47 600.47 280.47 600.47 280.19 600.2 280.47"/><polygon class="cls-1" points="640.18 280.47 640.47 280.47 640.47 280.18 640.18 280.47"/><polygon class="cls-1" points="560.21 280.47 560.47 280.47 560.47 280.2 560.21 280.47"/><polygon class="cls-4" points="600.47 240.47 600.18 240.47 560.47 280.2 560.47 280.47 600.2 280.47 600.47 280.19 600.47 240.47"/><polygon class="cls-1" points="640.47 240.47 640.17 240.47 600.47 280.19 600.47 280.47 640.18 280.47 640.47 280.18 640.47 240.47"/><polygon class="cls-3" points="760.47 240.47 760.14 240.47 720.47 280.16 720.47 280.47 760.15 280.47 760.47 280.15 760.47 240.47"/><polygon class="cls-1" points="680.17 280.47 680.47 280.47 680.47 280.17 680.17 280.47"/><polygon class="cls-1" points="760.15 280.47 760.47 280.47 760.47 280.15 760.15 280.47"/><polygon class="cls-1" points="720.16 280.47 720.47 280.47 720.47 280.16 720.16 280.47"/><polygon class="cls-3" points="720.47 240.47 720.15 240.47 680.47 280.17 680.47 280.47 720.16 280.47 720.47 280.16 720.47 240.47"/><polygon class="cls-1" points="440.47 240.47 440.23 240.47 400.47 280.25 400.47 280.47 440.24 280.47 440.47 280.24 440.47 240.47"/><polygon class="cls-1" points="400.25 280.47 400.47 280.47 400.47 280.25 400.25 280.47"/><polygon class="cls-1" points="360.26 280.47 360.47 280.47 360.47 280.26 360.26 280.47"/><polygon class="cls-1" points="400.47 240.47 400.24 240.47 360.47 280.26 360.47 280.47 400.25 280.47 400.47 280.25 400.47 240.47"/><polygon class="cls-5" points="360.47 240.47 360.25 240.47 320.47 280.27 320.47 280.47 360.26 280.47 360.47 280.26 360.47 240.47"/><polygon class="cls-1" points="320.27 280.47 320.47 280.47 320.47 280.27 320.27 280.47"/><polygon class="cls-1" points="440.24 280.47 440.47 280.47 440.47 280.24 440.24 280.47"/><polygon class="cls-3" points="520.47 240.47 520.21 240.47 480.47 280.23 480.47 280.47 520.22 280.47 520.47 280.21 520.47 240.47"/><polygon class="cls-3" points="320.47 240.47 320.26 240.47 280.47 280.28 280.47 280.47 320.27 280.47 320.47 280.27 320.47 240.47"/><polygon class="cls-1" points="480.23 280.47 480.47 280.47 480.47 280.23 480.23 280.47"/><polygon class="cls-4" points="480.47 240.47 480.21 240.47 440.47 280.24 440.47 280.47 480.23 280.47 480.47 280.23 480.47 240.47"/><polygon class="cls-1" points="520.22 280.47 520.47 280.47 520.47 280.21 520.22 280.47"/><polygon class="cls-4" points="160.47 120.47 200 120.47 200.47 120 200.47 80.47 200 80.47 160.47 120 160.47 120.47"/><polygon class="cls-1" points="960.47 200.47 960.47 200.08 960.08 200.47 960.47 200.47"/><polygon class="cls-1" points="960.47 280.47 960.47 280.1 960.1 280.47 960.47 280.47"/><polygon class="cls-1" points="920.47 240.1 920.47 240.47 960.09 240.47 960.47 240.09 960.47 200.47 960.08 200.47 920.47 240.1"/><polygon class="cls-2" points="920.47 200.09 920.47 200.47 960.08 200.47 960.47 200.08 960.47 160.47 960.07 160.47 920.47 200.09"/><polygon class="cls-5" points="920.47 280.11 920.47 280.47 960.1 280.47 960.47 280.1 960.47 240.47 960.09 240.47 920.47 280.11"/><polygon class="cls-1" points="960.47 240.47 960.47 240.09 960.09 240.47 960.47 240.47"/><polygon class="cls-1" points="960.47 160.47 960.47 160.07 960.07 160.47 960.47 160.47"/><polygon class="cls-2" points="920.47 80.47 960.05 80.47 960.47 80.05 960.47 40.47 960.04 40.47 920.47 80.06 920.47 80.47"/><polygon class="cls-1" points="960.47 80.47 960.47 80.05 960.05 80.47 960.47 80.47"/><polygon class="cls-1" points="920.47 160.08 920.47 160.47 960.07 160.47 960.47 160.07 960.47 120.47 960.06 120.47 920.47 160.08"/><polygon class="cls-3" points="960.04 40.47 920.47 40.47 920.47 80.06 960.04 40.47"/><polygon class="cls-4" points="920.47 120.07 920.47 120.47 960.06 120.47 960.47 120.06 960.47 80.47 960.05 80.47 920.47 120.07"/><polygon class="cls-1" points="960.47 120.47 960.47 120.06 960.06 120.47 960.47 120.47"/><polygon class="cls-4" points="800.47 280.47 800.14 280.47 760.47 320.16 760.47 320.47 800.15 320.47 800.47 320.15 800.47 280.47"/><polygon class="cls-1" points="760.16 320.47 760.47 320.47 760.47 320.16 760.16 320.47"/><polygon class="cls-1" points="800.15 320.47 800.47 320.47 800.47 320.15 800.15 320.47"/><polygon class="cls-1" points="720.17 320.47 720.47 320.47 720.47 320.17 720.17 320.47"/><polygon class="cls-2" points="840.47 280.47 840.13 280.47 800.47 320.15 800.47 320.47 840.14 320.47 840.47 320.14 840.47 280.47"/><polygon class="cls-3" points="760.47 280.47 760.15 280.47 720.47 320.17 720.47 320.47 760.16 320.47 760.47 320.16 760.47 280.47"/><polygon class="cls-5" points="920.47 320.12 920.47 320.47 960.11 320.47 960.47 320.11 960.47 280.47 960.1 280.47 920.47 320.12"/><polygon class="cls-2" points="920.47 280.47 920.11 280.47 880.47 320.13 880.47 320.47 920.12 320.47 920.47 320.12 920.47 280.47"/><polygon class="cls-1" points="920.12 320.47 920.47 320.47 920.47 320.12 920.12 320.47"/><polygon class="cls-1" points="840.14 320.47 840.47 320.47 840.47 320.14 840.14 320.47"/><polygon class="cls-1" points="880.47 280.47 880.12 280.47 840.47 320.14 840.47 320.47 880.13 320.47 880.47 320.13 880.47 280.47"/><polygon class="cls-1" points="880.13 320.47 880.47 320.47 880.47 320.13 880.13 320.47"/><polygon class="cls-1" points="800.07 0.47 760.47 0.47 760.47 40.09 800.07 0.47"/><polygon class="cls-2" points="600.47 40.47 640.12 40.47 640.47 40.12 640.47 0.47 640.11 0.47 600.47 40.13 600.47 40.47"/><polygon class="cls-5" points="640.11 0.47 600.47 0.47 600.47 40.13 640.11 0.47"/><polygon class="cls-5" points="680.1 0.47 640.47 0.47 640.47 40.12 680.1 0.47"/><polygon class="cls-1" points="880.47 80.07 880.47 80.47 920.06 80.47 920.47 80.06 920.47 40.47 920.05 40.47 880.47 80.07"/><polygon class="cls-1" points="560.47 40.47 600.13 40.47 600.47 40.13 600.47 0.47 600.12 0.47 560.47 40.14 560.47 40.47"/><polygon class="cls-1" points="720.09 0.47 680.47 0.47 680.47 40.11 720.09 0.47"/><polygon class="cls-5" points="600.12 0.47 560.47 0.47 560.47 40.14 600.12 0.47"/><polygon class="cls-2" points="520 0.47 480.47 0.47 480.47 40 520 0.47"/><polygon class="cls-1" points="480.47 40.47 520.15 40.47 520.47 40.15 520.47 0.47 520 0.47 480.47 40 480.47 40.47"/><polygon class="cls-2" points="680.47 40.47 720.1 40.47 720.47 40.1 720.47 0.47 720.09 0.47 680.47 40.11 680.47 40.47"/><polygon class="cls-1" points="560.13 0.47 520.47 0.47 520.47 40.15 560.13 0.47"/><polygon class="cls-5" points="520.47 40.47 560.14 40.47 560.47 40.14 560.47 0.47 560.13 0.47 520.47 40.15 520.47 40.47"/><polygon class="cls-2" points="640.47 40.47 680.11 40.47 680.47 40.11 680.47 0.47 680.1 0.47 640.47 40.12 640.47 40.47"/><polygon class="cls-1" points="880.05 0.47 840.47 0.47 840.47 40.07 880.05 0.47"/><polygon class="cls-1" points="920.04 0.47 880.47 0.47 880.47 40.06 920.04 0.47"/><polygon class="cls-5" points="840.47 40.47 880.06 40.47 880.47 40.06 880.47 0.47 880.05 0.47 840.47 40.07 840.47 40.47"/><polygon class="cls-3" points="880.47 40.47 920.05 40.47 920.47 40.05 920.47 0.47 920.04 0.47 880.47 40.06 880.47 40.47"/><polygon class="cls-1" points="920.47 40.47 920.47 40.05 920.05 40.47 920.47 40.47"/><polygon class="cls-4" points="760.47 40.47 800.08 40.47 800.47 40.08 800.47 0.47 800.07 0.47 760.47 40.09 760.47 40.47"/><polygon class="cls-3" points="720.47 40.47 760.09 40.47 760.47 40.09 760.47 0.47 760.08 0.47 720.47 40.1 720.47 40.47"/><polygon class="cls-1" points="720.47 280.47 720.16 280.47 680.47 320.18 680.47 320.47 720.17 320.47 720.47 320.17 720.47 280.47"/><polygon class="cls-1" points="840.06 0.47 800.47 0.47 800.47 40.08 840.06 0.47"/><polygon class="cls-5" points="800.47 40.47 840.07 40.47 840.47 40.07 840.47 0.47 840.06 0.47 800.47 40.08 800.47 40.47"/><polygon class="cls-3" points="760.08 0.47 720.47 0.47 720.47 40.1 760.08 0.47"/><polygon class="cls-1" points="360.27 320.47 360.47 320.47 360.47 320.27 360.27 320.47"/><polygon class="cls-2" points="120 280.47 120.47 280 120.47 240.47 120 240.47 80.47 280 80.47 280.47 120 280.47"/><polygon class="cls-4" points="80.47 240.47 80.47 280 120 240.47 80.47 240.47"/><polygon class="cls-1" points="80.47 280 80 280.47 80.47 280.47 80.47 280"/><polygon class="cls-1" points="80.47 200.47 80.47 240 120 200.47 80.47 200.47"/><polygon class="cls-5" points="120.47 240 120.47 200.47 120 200.47 80.47 240 80.47 240.47 120 240.47 120.47 240"/><polygon class="cls-3" points="80.47 280.47 80 280.47 40.47 320 40.47 320.47 80 320.47 80.47 320 80.47 280.47"/><polygon class="cls-2" points="160.47 280.47 160 280.47 120.47 320 120.47 320.47 160 320.47 160.47 320 160.47 280.47"/><polygon class="cls-5" points="120.47 200 120.47 160.47 120 160.47 80.47 200 80.47 200.47 120 200.47 120.47 200"/><polygon class="cls-1" points="160 320.47 160.47 320.47 160.47 320 160 320.47"/><polygon class="cls-1" points="80 320.47 80.47 320.47 80.47 320 80 320.47"/><polygon class="cls-1" points="120 320.47 120.47 320.47 120.47 320 120 320.47"/><polygon class="cls-4" points="120.47 280.47 120 280.47 80.47 320 80.47 320.47 120 320.47 120.47 320 120.47 280.47"/><polygon class="cls-1" points="80.29 120.47 80.47 120.47 80.47 120.29 80.29 120.47"/><polygon class="cls-1" points="120.26 40.47 80.47 40.47 80.47 80.28 120.26 40.47"/><polygon class="cls-5" points="80.47 80.47 120.27 80.47 120.47 80.27 120.47 40.47 120.26 40.47 80.47 80.28 80.47 80.47"/><polygon class="cls-3" points="80.47 80.28 80.47 40.47 80.27 40.47 40.47 80.29 40.47 80.47 80.28 80.47 80.47 80.28"/><polygon class="cls-4" points="80.47 160.47 80.47 200 120 160.47 80.47 160.47"/><polygon class="cls-5" points="160.25 40.47 120.47 40.47 120.47 80.27 160.25 40.47"/><polygon class="cls-2" points="40.47 80.47 40.47 120.3 80.28 80.47 40.47 80.47"/><polygon class="cls-1" points="120.47 80.47 160.26 80.47 160.47 80.26 160.47 40.47 160.25 40.47 120.47 80.27 120.47 80.47"/><polygon class="cls-2" points="80.47 120.47 80.47 160.3 120.28 120.47 80.47 120.47"/><polygon class="cls-3" points="80.47 80.47 80.28 80.47 40.47 120.3 40.47 120.47 80.29 120.47 80.47 120.29 80.47 80.47"/><polygon class="cls-3" points="120.47 160 120.47 120.47 120.28 120.47 80.47 160.3 80.47 160.47 120 160.47 120.47 160"/><polygon class="cls-1" points="120.47 120.28 120.47 80.47 120.27 80.47 80.47 120.29 80.47 120.47 120.28 120.47 120.47 120.28"/><polygon class="cls-5" points="200.47 280.47 200 280.47 160.47 320 160.47 320.47 200 320.47 200.47 320 200.47 280.47"/><polygon class="cls-1" points="680.47 280.47 680.17 280.47 640.47 320.19 640.47 320.47 680.18 320.47 680.47 320.18 680.47 280.47"/><polygon class="cls-1" points="520.23 320.47 520.47 320.47 520.47 320.23 520.23 320.47"/><polygon class="cls-3" points="560.47 280.47 560.21 280.47 520.47 320.23 520.47 320.47 560.22 320.47 560.47 320.21 560.47 280.47"/><polygon class="cls-4" points="520.47 280.47 520.22 280.47 480.47 320.24 480.47 320.47 520.23 320.47 520.47 320.23 520.47 280.47"/><polygon class="cls-5" points="480.47 280.47 480.23 280.47 440.47 320.25 440.47 320.47 480.24 320.47 480.47 320.24 480.47 280.47"/><polygon class="cls-5" points="480.24 320.47 480.47 320.47 480.47 320.24 480.24 320.47"/><polygon class="cls-1" points="560.22 320.47 560.47 320.47 560.47 320.21 560.22 320.47"/><polygon class="cls-1" points="440.25 320.47 440.47 320.47 440.47 320.25 440.25 320.47"/><polygon class="cls-1" points="640.2 320.47 640.47 320.47 640.47 320.19 640.2 320.47"/><polygon class="cls-1" points="200 320.47 200.47 320.47 200.47 320 200 320.47"/><polygon class="cls-3" points="640.47 280.47 640.18 280.47 600.47 320.2 600.47 320.47 640.2 320.47 640.47 320.19 640.47 280.47"/><polygon class="cls-2" points="600.47 280.47 600.2 280.47 560.47 320.21 560.47 320.47 600.21 320.47 600.47 320.2 600.47 280.47"/><polygon class="cls-1" points="600.21 320.47 600.47 320.47 600.47 320.2 600.21 320.47"/><polygon class="cls-1" points="680.18 320.47 680.47 320.47 680.47 320.18 680.18 320.47"/><polygon class="cls-1" points="280.47 280.47 280.28 280.47 240.47 320.3 240.47 320.47 280.29 320.47 280.47 320.29 280.47 280.47"/><polygon class="cls-5" points="440.47 280.47 440.24 280.47 400.47 320.26 400.47 320.47 440.25 320.47 440.47 320.25 440.47 280.47"/><polygon class="cls-4" points="320.47 280.47 320.27 280.47 280.47 320.29 280.47 320.47 320.28 320.47 320.47 320.28 320.47 280.47"/><polygon class="cls-4" points="240.47 280.47 240 280.47 200.47 320 200.47 320.47 240.3 320.47 240.47 320.3 240.47 280.47"/><polygon class="cls-1" points="240.3 320.47 240.47 320.47 240.47 320.3 240.3 320.47"/><polygon class="cls-1" points="280.29 320.47 280.47 320.47 280.47 320.29 280.29 320.47"/><polygon class="cls-5" points="400.47 280.47 400.25 280.47 360.47 320.27 360.47 320.47 400.26 320.47 400.47 320.26 400.47 280.47"/><polygon class="cls-1" points="320.28 320.47 320.47 320.47 320.47 320.28 320.28 320.47"/><polygon class="cls-3" points="400.26 320.47 400.47 320.47 400.47 320.26 400.26 320.47"/><polygon class="cls-5" points="360.47 280.47 360.26 280.47 320.47 320.28 320.47 320.47 360.27 320.47 360.47 320.27 360.47 280.47"/><polygon class="cls-2" points="200.24 40.47 160.47 40.47 160.47 80.26 200.24 40.47"/></svg>